<?xml version="1.0" standalone="no"?>
<!DOCTYPE svg PUBLIC "-//W3C//DTD SVG 1.1//EN" "http://www.w3.org/Graphics/SVG/1.1/DTD/svg11.dtd" >
<svg xmlns="http://www.w3.org/2000/svg" xmlns:xlink="http://www.w3.org/1999/xlink" version="1.1">
<metadata></metadata>
<defs>
<font id="vacer_serif_personalthin" horiz-adv-x="851" >
<font-face units-per-em="2048" ascent="1536" descent="-512" />
<missing-glyph horiz-adv-x="411" />
<glyph horiz-adv-x="0" />
<glyph horiz-adv-x="0" />
<glyph unicode="&#xd;" horiz-adv-x="1024" />
<glyph unicode=" "  horiz-adv-x="411" />
<glyph unicode="&#x09;" horiz-adv-x="411" />
<glyph unicode="&#xa0;" horiz-adv-x="411" />
<glyph unicode="!" horiz-adv-x="313" d="M100 53q0 20 15.5 34.5t38.5 14.5q20 0 34.5 -14.5t14.5 -34.5q0 -23 -14.5 -38t-34.5 -15q-23 0 -38.5 15.5t-15.5 37.5zM137 1055v178h33v-180l-2 -717h-29z" />
<glyph unicode="&#x22;" horiz-adv-x="374" d="M100 1087v146h31v-191l-2 -243h-27zM231 1087v146h33v-191l-2 -243h-29z" />
<glyph unicode="#" horiz-adv-x="843" d="M100 360v29h123l70 465h-113l2 31h115l22 137h29l-22 -137h258l22 137h29l-23 -137h121l-2 -31h-121l-71 -465h112v-29h-116l-23 -151h-29l23 151h-258l-23 -151h-28l22 151h-119zM252 389h258l70 465h-256z" />
<glyph unicode="$" horiz-adv-x="907" d="M104 973q0 51 20.5 102t62.5 92t103.5 67t145.5 28v127h33v-127q186 -6 261 -123t58 -308l-30 -4l-6 7q25 193 -57.5 296t-241.5 103q-78 0 -137.5 -23.5t-99.5 -60.5t-59.5 -83t-19.5 -93q0 -88 49.5 -148.5t123 -108.5t158.5 -90t158.5 -90.5t123 -108.5t49.5 -146 q0 -63 -21.5 -116.5t-63.5 -92.5t-103.5 -62.5t-141.5 -25.5v-168h-33v168q-180 8 -267 128.5t-63 327.5h31l6 -6q-14 -94 0.5 -172t55.5 -133t105.5 -86t148.5 -31q154 0 232.5 75t78.5 192q0 80 -49 137t-122 102t-159 86t-158.5 92.5t-122 117t-49.5 159.5z" />
<glyph unicode="%" horiz-adv-x="960" d="M100 0l713 1264h37l-713 -1264h-37zM100 1071q0 39 14.5 75t40 61.5t60.5 41t74 15.5t73.5 -14.5t60.5 -40t41 -60.5t15 -74t-14 -73.5t-40 -60.5t-59.5 -41t-72.5 -15t-74 14t-61.5 40t-42 59.5t-15.5 72.5zM125 1073q0 -68 49 -115t117 -47t116 47.5t48 114.5 q0 70 -48.5 117t-115.5 47q-68 0 -117 -47t-49 -117zM465 186q0 39 15.5 74t41 61.5t59 42t72.5 15.5t74 -14.5t61.5 -40t42 -60.5t15.5 -74t-14.5 -73.5t-40 -60t-60.5 -41t-74 -15.5t-73.5 14.5t-60 39t-42 59t-16.5 73.5zM492 188q0 -68 47.5 -114.5t115.5 -46.5t116 47 t48 114q0 70 -48 117t-116 47t-115.5 -47t-47.5 -117z" />
<glyph unicode="&#x26;" horiz-adv-x="1060" d="M111.5 392q19.5 75 83 142.5t172.5 114.5q-59 68 -97.5 135.5t-50.5 139.5q-2 18 -3 36.5t-1 36.5q0 51 18.5 99.5t52 85.5t84 58.5t113.5 21.5t111.5 -20.5t80.5 -54.5t48 -79t16 -94q0 -31 -4 -61.5t-14 -59.5q-27 -76 -99.5 -140.5t-205.5 -117.5l372 -428l127 162 h-69v20h174v-24h-66l-143 -181l139 -159h66v-25h-88l-137 158q-82 -94 -171.5 -132t-171 -38t-150.5 31.5t-108 76.5q-57 66 -77.5 143.5t-1 152.5zM143.5 383q-18.5 -70 1 -138.5t68.5 -125.5q45 -53 112.5 -80t142.5 -20.5t153.5 45t148.5 118.5l-383 443 q-109 -45 -167 -108.5t-76.5 -133.5zM248 993q0 -84 37 -161.5t108 -169.5q92 35 152.5 74.5t96.5 83.5t49.5 93.5t13.5 102.5q0 88 -57.5 152.5t-164.5 64.5q-59 0 -103 -20.5t-72.5 -53.5t-44 -77t-15.5 -89z" />
<glyph unicode="'" horiz-adv-x="313" d="M137 1087v146h33v-191l-2 -243h-29z" />
<glyph unicode="(" horiz-adv-x="432" d="M100 494q0 147 15.5 279t43 237.5t63.5 179.5t79 104l21 -16q-41 -31 -76 -111t-59.5 -189.5t-39 -235.5t-14.5 -248q0 -115 13.5 -236t37 -228.5t56 -187.5t71.5 -110l-18 -19q-41 31 -76 103.5t-60.5 176t-41 231.5t-15.5 270z" />
<glyph unicode=")" horiz-adv-x="432" d="M100 1278l21 16q43 -31 79 -104.5t63.5 -179t43 -237.5t15.5 -279q0 -141 -15.5 -269.5t-41 -232t-61.5 -176t-75 -103.5l-18 19q39 31 71.5 110.5t56 187t37 228.5t13.5 236q0 123 -14.5 248.5t-39 235t-59.5 189.5t-76 111z" />
<glyph unicode="*" horiz-adv-x="837" d="M135 774l15 25l251 -150l-2 295h29l-2 -299l258 152l14 -27l-258 -145l252 -142l-14 -24l-252 147l2 -291h-29l2 287l-249 -145l-15 26l254 144z" />
<glyph unicode="+" horiz-adv-x="837" d="M100 610v29h299v305h29v-305h301v-29h-301v-295h-29v295h-299z" />
<glyph unicode="," horiz-adv-x="313" d="M92 -92l55 94q-23 0 -35 14.5t-12 36.5q0 20 15.5 34.5t38.5 14.5q20 0 33.5 -13t15.5 -34q0 -6 -4 -18q-2 -10 -8.5 -20.5t-14.5 -20.5l-55 -88h-29z" />
<glyph unicode="-" horiz-adv-x="632" d="M100 504v28h424v-28h-424z" />
<glyph unicode="." horiz-adv-x="313" d="M100 53q0 20 15.5 34.5t38.5 14.5q20 0 34.5 -14.5t14.5 -34.5q0 -23 -14.5 -38t-34.5 -15q-23 0 -38.5 15.5t-15.5 37.5z" />
<glyph unicode="/" horiz-adv-x="653" d="M100 -82l410 1368h33l-410 -1368h-33z" />
<glyph unicode="0" horiz-adv-x="870" d="M100 418v409q0 217 85 326t245 109t246 -109t86 -326v-409q0 -217 -86 -325.5t-246 -108.5t-245 108.5t-85 325.5zM133 430q0 -123 24.5 -204t65.5 -129t94.5 -66.5t112.5 -18.5q57 0 111.5 18.5t96.5 66.5t66.5 129t24.5 204v385q0 123 -24.5 204t-66.5 129t-96.5 66.5 t-111.5 18.5q-59 0 -112.5 -18.5t-94.5 -66.5t-65.5 -129t-24.5 -204v-385z" />
<glyph unicode="1" horiz-adv-x="284" d="M39 0v25h82v1136h-23v23l27 49h29v-1208h79v-25h-194z" />
<glyph unicode="2" horiz-adv-x="890" d="M102 0q0 74 48.5 141.5t120 134t154.5 135t154.5 144.5t120 163t48.5 189q0 145 -75 235.5t-212 90.5q-98 0 -166 -41t-106.5 -109.5t-48 -158.5t9.5 -189l-7 -6h-30q-16 100 -7 196.5t49 171t115.5 120t190.5 45.5q154 0 236.5 -97.5t82.5 -257.5q0 -102 -43 -187 t-108.5 -160t-144 -141.5t-151.5 -130t-127 -127t-73 -132.5h623v82h24v-111h-678z" />
<glyph unicode="3" horiz-adv-x="909" d="M104 831q-12 94 7.5 173t64.5 136.5t113.5 89.5t154.5 32q96 0 163 -27t109 -74t60.5 -109.5t18.5 -133.5q0 -82 -27 -134.5t-63.5 -83t-76.5 -45t-67 -20.5q43 -8 86 -28.5t77 -57.5t55.5 -93.5t21.5 -133.5q0 -66 -22.5 -126.5t-66.5 -107.5t-108.5 -75.5t-148.5 -28.5 q-104 0 -176 32.5t-113 92t-54.5 144.5t-0.5 187h30l6 -6q-14 -94 -1.5 -172t50 -133t102 -86t157.5 -31q74 0 131 24.5t97 67.5t61.5 98.5t21.5 116.5q0 137 -74 220.5t-248 83.5h-94v28h96q168 0 242 73t74 194q0 147 -82 231t-236 84q-74 0 -134 -29.5t-101 -83 t-59.5 -126t-8.5 -160.5l-6 -7z" />
<glyph unicode="4" horiz-adv-x="792" d="M61 217v29l574 987h4h14v-987h82v-29h-82v-197h82v-20h-196v20h82v197h-560zM94 246h527v346v526l6 43z" />
<glyph unicode="5" horiz-adv-x="890" d="M106.5 253q-10.5 85 2.5 187h30l6 -6q-12 -92 -5 -170t39 -134t93.5 -87t159.5 -31q150 0 233 91.5t83 265.5q0 176 -90.5 253.5t-266.5 71.5q-84 -4 -155.5 -14t-110.5 -16l-10 10l43 559h559v-111h-25v82h-499l-41 -508q8 0 33.5 4.5t59.5 8.5t73.5 8t78.5 4 q106 4 180 -19.5t119 -69.5t64.5 -113.5t19.5 -149.5q0 -53 -12 -121t-49 -126.5t-105.5 -98t-181.5 -39.5q-104 0 -171.5 32.5t-105.5 92t-48.5 144.5z" />
<glyph unicode="6" horiz-adv-x="919" d="M100 539v151q0 293 90.5 432.5t280.5 139.5q86 0 145.5 -29t98.5 -69t57.5 -83t22.5 -71l-4 -6l-31 -7q-10 53 -38 100.5t-69 76.5t-89 43t-99 12q-92 -2 -154.5 -40t-101.5 -105.5t-56.5 -163t-19.5 -209.5v-179q10 25 36 66t66.5 80t98 67.5t133.5 28.5t139.5 -27.5 t108.5 -80t68.5 -125t23.5 -164.5q0 -66 -20.5 -134.5t-63.5 -127t-108.5 -95t-153.5 -36.5q-174 0 -267.5 141t-93.5 414zM135 475q8 -127 36 -215t71 -143.5t99 -80t118 -24.5q74 0 132 33t99 85t62.5 116.5t21.5 130.5q0 80 -19.5 148.5t-58.5 117.5t-96 77t-133 28 q-66 0 -121 -26t-98 -66t-72 -88t-41 -93z" />
<glyph unicode="7" horiz-adv-x="727" d="M41 1122v82v29h614v-27l-389 -1186h78v-20h-194v20h81l387 1184h-552v-82h-25z" />
<glyph unicode="8" horiz-adv-x="942" d="M100 322q0 86 27 143t64.5 92t78.5 51.5t70 22.5q-31 2 -71 20.5t-76.5 53t-61.5 87t-25 126.5q0 72 22 135t67 109t111.5 73t158.5 27t160.5 -27t113.5 -73t66.5 -109t21.5 -135q0 -74 -25.5 -127.5t-63.5 -88t-80 -52t-72 -19.5q27 -2 69.5 -16.5t81.5 -48.5t68 -93 t29 -151q0 -53 -18.5 -112.5t-60.5 -110t-113 -83t-175 -32.5t-175 32.5t-113 83t-60.5 109.5t-18.5 113zM133 324q0 -72 25.5 -130.5t69.5 -98.5t105.5 -61.5t133.5 -21.5t133.5 20.5t105.5 59.5t69.5 97.5t25.5 134.5q0 82 -23.5 138t-67.5 90t-105.5 49t-137.5 15 q-152 0 -243 -68.5t-91 -223.5zM139 918q0 -119 79 -196t249 -77t249 73t79 197q0 84 -25 144.5t-69 98.5t-104 56.5t-132 18.5q-143 0 -234.5 -79t-91.5 -236z" />
<glyph unicode="9" horiz-adv-x="919" d="M102 895q0 63 20.5 129t63.5 119t108 86t155 33q172 0 266 -128t94 -401v-151q0 -293 -91 -445.5t-282 -152.5q-86 0 -145.5 28.5t-98 68.5t-57 83t-22.5 72l6 6l31 6q6 -53 31.5 -96t65.5 -74t89 -48.5t100 -17.5q92 0 156.5 42t104.5 116t58.5 174t18.5 217v178 q-10 -25 -34.5 -65.5t-65.5 -79.5t-99.5 -67.5t-134.5 -28.5t-138 27.5t-107 79.5t-69 125t-24 165zM135 895q0 -80 19.5 -148.5t58.5 -117.5t96.5 -77t132.5 -28q66 0 121 25.5t97 65.5t72 88.5t42 93.5q-8 125 -36.5 209t-71.5 135t-98.5 71.5t-116.5 20.5 q-74 0 -133.5 -27.5t-99.5 -75t-61.5 -108.5t-21.5 -127z" />
<glyph unicode=":" horiz-adv-x="313" d="M100 53q0 20 15.5 34.5t38.5 14.5q20 0 34.5 -14.5t14.5 -34.5q0 -23 -14.5 -38t-34.5 -15q-23 0 -38.5 15.5t-15.5 37.5zM100 889q0 23 15.5 37t38.5 14q20 0 34.5 -14t14.5 -37t-14.5 -37t-34.5 -14q-23 0 -38.5 14t-15.5 37z" />
<glyph unicode=";" horiz-adv-x="313" d="M92 -92l55 94q-23 0 -35 14.5t-12 36.5q0 20 15.5 34.5t38.5 14.5q20 0 33.5 -13t15.5 -34q0 -6 -4 -18q-2 -10 -8.5 -20.5t-14.5 -20.5l-55 -88h-29zM100 889q0 23 15.5 37t38.5 14q20 0 34.5 -14t14.5 -37t-14.5 -37t-34.5 -14q-23 0 -38.5 14t-15.5 37z" />
<glyph unicode="&#x3c;" horiz-adv-x="581" d="M100 414v22l373 260v-34l-338 -238l338 -248v-31z" />
<glyph unicode="=" horiz-adv-x="837" d="M100 485v29h629v-29h-629zM100 694v29h629v-29h-629z" />
<glyph unicode="&#x3e;" horiz-adv-x="581" d="M100 145v31l338 248l-338 238v34l373 -260v-22z" />
<glyph unicode="?" horiz-adv-x="886" d="M106 948q7 78 44.5 147.5t110.5 118t196 48.5q154 0 236.5 -87.5t82.5 -246.5q0 -92 -25.5 -154.5t-65.5 -109t-85 -79t-85 -68.5t-66.5 -78t-26.5 -103h-31q0 68 25.5 113t65.5 80.5t85 68.5t85 76t65.5 103.5t25.5 150.5q0 147 -75.5 226t-210.5 79q-104 0 -170 -44 t-100.5 -107.5t-44 -135.5t0.5 -129l-4 -6h-30q-10 59 -3 137zM356 53q0 20 15.5 34.5t38.5 14.5q20 0 34.5 -14.5t14.5 -34.5q0 -23 -14.5 -38t-34.5 -15q-23 0 -38.5 15.5t-15.5 37.5z" />
<glyph unicode="@" horiz-adv-x="1343" d="M100 512q0 184 41 324.5t115 235.5t177.5 143.5t225.5 48.5q111 0 214.5 -41t183.5 -130t129 -231.5t49 -345.5q0 -113 -16.5 -203t-43 -153.5t-60.5 -97t-66 -33.5q-14 0 -31 9t-30 31.5t-22.5 61.5t-9.5 100q-10 -47 -33.5 -91t-62.5 -78.5t-91 -55t-118 -20.5 q-90 0 -151.5 25.5t-100.5 74.5t-55 119.5t-16 161.5v215q0 201 74.5 301t248.5 100q68 0 120 -21.5t91 -57.5t61.5 -81t32.5 -90q2 53 3.5 103.5t1.5 103.5h28v-698q0 -94 17.5 -136.5t42 -46.5t51 25t45.5 76q37 88 49 168t12 188q0 172 -38 306t-109.5 226.5t-173 140.5 t-226.5 48q-123 0 -221 -51t-167.5 -146.5t-106.5 -228.5t-37 -299q0 -160 37 -297t106.5 -237.5t168 -158t220.5 -57.5q90 0 165 30t137 85l18 -20q-70 -59 -150.5 -90t-169.5 -31q-121 0 -223 53t-177 152.5t-117 244t-42 326.5zM360 367q0 -166 67 -258.5t230 -92.5 q90 0 147.5 37t91.5 91.5t47 114.5t13 110v217q0 59 -13 123.5t-47 119t-92.5 89t-146.5 34.5q-84 0 -140 -25.5t-91 -73.5t-50.5 -116.5t-15.5 -154.5v-215z" />
<glyph unicode="A" horiz-adv-x="845" d="M-20 0v25h81l338 1208h52l331 -1208h84v-25h-194v23h76l-89 313h-475l-88 -313h78v-23h-194zM190 362h463l-65 238l-164 608l-168 -608z" />
<glyph unicode="B" d="M20 0v25h80v1183h-80v25h80h379q135 0 218 -79t83 -224q0 -86 -46 -170t-156 -125q57 -12 97 -44t62.5 -73t32.5 -87t10 -89q0 -168 -81 -255t-199 -87h-480zM135 29h365q45 0 89 17t78.5 56t57.5 97.5t23 142.5q0 119 -65 194.5t-171 84.5h-377v-592zM135 649h371 q33 2 75 19.5t78.5 51.5t62.5 86t26 124q0 127 -70 200.5t-199 73.5h-344v-555z" />
<glyph unicode="C" horiz-adv-x="825" d="M63 440v373q0 111 27 195t74 141t111.5 86t138.5 29q102 0 173.5 -33t113.5 -95q43 -63 57 -153q9 -53 8 -115q0 -43 -4 -90h-31l-6 4q5 49 5 94.5t-5 87.5q-10 84 -46 143.5t-100.5 93.5t-164.5 34q-139 0 -228.5 -110.5t-89.5 -311.5v-373q0 -211 77 -319.5t239 -108.5 q82 0 144 31t103 86t57 132q10 48 11 102q0 33 -4 69l6 6l33 -6q2 -28 2 -55q0 -181 -84 -279q-96 -114 -266 -114q-180 0 -265.5 114.5t-85.5 341.5z" />
<glyph unicode="D" horiz-adv-x="870" d="M20 0v25h80v1183h-80v25h349q115 0 193.5 -36t126.5 -110.5t69.5 -191.5t21.5 -279q0 -141 -23.5 -255.5t-74.5 -194.5t-132 -123t-196 -43h-334zM135 29h219q186 0 290 141t104 446q0 141 -16.5 251t-58.5 184.5t-116 113.5t-188 39h-234v-1175z" />
<glyph unicode="E" horiz-adv-x="751" d="M20 0v25h80v1183h-80v25h80h623v-111h-25v80h-563v-555h426v-31h-426v-585h572v80h24v-111h-711z" />
<glyph unicode="F" horiz-adv-x="724" d="M20 0v25h80v1183h-80v25h703v-111h-25v80h-563v-635h426v-30h-426v-512h80v-25h-195z" />
<glyph unicode="G" horiz-adv-x="868" d="M68 440v373q0 102 24.5 185t69.5 142.5t110.5 91.5t147.5 32q111 0 182.5 -35t111.5 -99.5t51 -153.5q6 -47 6 -99q0 -47 -5 -99h-31l-6 4q6 51 6 99q0 39 -4 75q-8 82 -43 143.5t-99.5 98.5t-168.5 37q-66 0 -124 -26.5t-101 -80t-69 -132t-26 -183.5v-373 q0 -225 79 -326.5t233 -101.5q86 0 147.5 39t100 109.5t57 169t18.5 215.5h-82v24h197v-24h-82v-545h-25q0 72 -2 146.5t-2 146.5q-14 -66 -43.5 -122t-71.5 -97t-96.5 -65.5t-117.5 -24.5q-80 0 -142.5 24.5t-107.5 78.5t-68.5 141t-23.5 212z" />
<glyph unicode="H" horiz-adv-x="884" d="M20 0v25h80v1183h-80v25h195v-25h-80v-561h615v561h-80v25h80h114v-25h-82v-1183h82v-25h-194v25h80v591h-615v-591h80v-25h-195z" />
<glyph unicode="I" horiz-adv-x="235" d="M20 0v25h80v1183h-80v25h115v-1208h80v-25h-195zM135 1208v25h80v-25h-80z" />
<glyph unicode="J" horiz-adv-x="708" d="M53 393l31 8l4 -6q-6 -40 -6 -76q0 -43 8 -81q14 -70 48 -120t82 -78t108 -28q74 0 122 25.5t75.5 79t38.5 135.5t11 197v759h-81v25h194v-25h-80v-759q0 -115 -11 -202t-42 -145.5t-86 -88t-141 -29.5q-68 0 -123 28.5t-92 80.5t-53 128q-11 47 -11 102q0 34 4 70z" />
<glyph unicode="K" horiz-adv-x="802" d="M20 0v25h80v1183h-80v25h80h115v-25h-80v-563q43 0 89 -3q23 -2 45.5 -2t44.5 2q44 3 84 20.5t71 58.5q-6 -10 8.5 15.5t39 71.5t57 106.5t63.5 120t55.5 112.5t36.5 86h94v-25h-65q-10 -23 -39 -82t-61.5 -124.5t-60.5 -123t-38 -75.5q-35 -68 -75 -117t-95 -59l31 -37 l338 -565h65v-25h-94l-367 621h-227v-596h80v-25h-195z" />
<glyph unicode="L" horiz-adv-x="675" d="M20 0v25h80v1183h-80v25h115h80v-25h-80v-1177h481v80h25v-111h-621z" />
<glyph unicode="M" horiz-adv-x="983" d="M20 0v25h80v1183h-80v25h130q53 -195 108 -385.5t111 -382.5l106 -426l47 168l318 1026h123v-25h-80v-1183h80v-25h-193v25h80v544l10 623l-371 -1192h-24l-338 1184l6 -778v-381h80v-25h-193z" />
<glyph unicode="N" horiz-adv-x="884" d="M20 0v25h80v1183h-80v25h111l623 -1174q0 6 -1 14.5t-1 16.5l-2 619v499h-80v25h112v-1233h-30l-623 1167q4 -16 4 -28l2 -617v-497h80v-25h-195zM782 1208v25h82v-25h-82z" />
<glyph unicode="O" horiz-adv-x="884" d="M80 616q0 184 24.5 308.5t69.5 199t110.5 107.5t145.5 33q86 0 154.5 -33t116 -107.5t72 -198.5t24.5 -309q0 -170 -29 -289.5t-78 -196.5t-115.5 -111.5t-144.5 -34.5t-142.5 30.5t-110.5 104.5t-71.5 195.5t-25.5 301.5zM113 616q0 -313 78.5 -458.5t238.5 -145.5 q88 0 151.5 47t104.5 129t59.5 191.5t18.5 236.5q0 170 -21.5 288t-63.5 191.5t-104.5 106.5t-144.5 33q-162 0 -239.5 -147.5t-77.5 -471.5z" />
<glyph unicode="P" horiz-adv-x="860" d="M20 0v25h80v1183h-80v25h340q29 0 54.5 -2t50.5 -6q88 -12 148.5 -47t97.5 -87.5t53 -123t16 -152.5q0 -205 -97 -311.5t-312 -106.5h-236v-372h80v-25h-195zM135 426h240q186 0 279.5 99.5t93.5 289.5q0 186 -93.5 287.5t-289.5 101.5h-230v-778z" />
<glyph unicode="Q" horiz-adv-x="884" d="M80 616q0 184 24.5 308.5t69.5 199t110.5 107.5t145.5 33q86 0 154.5 -33t116 -107.5t72 -198.5t24.5 -309q0 -174 -30 -293.5t-79 -197.5l131 -133l-22 -17l-15 5l-116 120q-47 -61 -107.5 -88.5t-128.5 -27.5q-78 0 -142.5 30.5t-110.5 104.5t-71.5 195.5t-25.5 301.5z M113 616q0 -313 78.5 -458.5t238.5 -145.5q70 0 123 30t92 83l-160 168l19 18l160 -161q51 82 75.5 202.5t24.5 263.5q0 170 -21.5 288t-63.5 191.5t-104.5 106.5t-144.5 33q-162 0 -239.5 -147.5t-77.5 -471.5z" />
<glyph unicode="R" horiz-adv-x="899" d="M20 0v25h80v1183h-80v25h80h318q168 0 265 -84t97 -246q0 -121 -52 -217t-175 -139l39 -23l221 -499h66v-25h-88l-213 477q-10 25 -23.5 36t-31 14t-41 3h-52.5q-92 2 -166 2h-129v-507h80v-25h-195zM135 559h293q68 0 125 21.5t100 64.5t67.5 107.5t24.5 148.5 q0 137 -82.5 220t-244.5 83h-283v-645z" />
<glyph unicode="S" horiz-adv-x="866" d="M84 973q0 53 21.5 105t65.5 93t109.5 66t151.5 25q98 0 166 -31t109 -87q41 -58 55 -136q9 -50 9 -108q0 -33 -3 -69l-31 -4l-6 7q6 45 6 85q0 132 -63 211q-82 103 -242 103q-78 0 -137 -23.5t-99 -60.5t-59.5 -83t-19.5 -93q0 -68 28.5 -118t76.5 -92t108.5 -76 t124.5 -66q61 -33 119.5 -66t103.5 -73t72.5 -89t27.5 -112t-22.5 -117.5t-66.5 -94.5t-108.5 -62.5t-148.5 -22.5q-186 0 -278 122q-73 96 -73 248q0 41 5 86h31l6 -6q-7 -47 -7 -90t7 -82q14 -78 55 -133t105.5 -86t148.5 -31q154 0 232.5 75t78.5 192q0 59 -26.5 105 t-70.5 83t-101.5 68.5t-116.5 62.5q-63 33 -124.5 67.5t-111 78.5t-79 99.5t-29.5 129.5z" />
<glyph unicode="T" horiz-adv-x="718" d="M0 1122v111h719v-111h-23v80h-319v-1177h82v-25h-197v25h82v1177h-321v-80h-23z" />
<glyph unicode="U" horiz-adv-x="890" d="M20 1208v25h101h94v-25h-82v-731q0 -129 20.5 -217t60.5 -143.5t98.5 -80t131.5 -24.5q84 0 143.5 33t96.5 93.5t54.5 146.5t17.5 192v731h-80v25h194v-25h-82v-626q0 -174 -21.5 -290t-64.5 -184.5t-107.5 -96t-150.5 -27.5q-92 0 -156.5 27.5t-106.5 96t-61.5 184.5 t-19.5 290v626h-80z" />
<glyph unicode="V" horiz-adv-x="890" d="M-41 1208v25h195v-25h-76l362 -1136l9 -52l8 52l356 1136h-76v25h195v-25h-84l-375 -1208h-49l-385 1208h-80z" />
<glyph unicode="W" horiz-adv-x="1071" d="M-23 1208v25h195v-25h-80l197 -1083l16 -88l12 88l183 1108h30l175 -1108l12 -92l14 90l244 1085h-76v25h195v-25h-84l-269 -1208h-49l-166 1055l-12 127l-10 -127l-174 -1055h-54l-217 1208h-82z" />
<glyph unicode="X" horiz-adv-x="784" d="M-29 0v25h103l272 567l25 41l-39 63l-250 512h-82v25h193v-25h-74l272 -563l271 563h-72v25h194v-25h-82l-251 -512l-41 -63l28 -41l273 -567h84v-25h-195v25h72l-281 593l-282 -593h53v-25h-191z" />
<glyph unicode="Y" horiz-adv-x="825" d="M-37 1208v25h201v-25h-88l321 -694l13 -41l10 37l319 698h-75v25h188v-25h-78l-346 -762v-421h80v-25h-195v25h82v424l-354 759h-78z" />
<glyph unicode="Z" horiz-adv-x="657" d="M29 0v27l555 1177h-531v-82h-24v111h592v-27l-558 -1177h533v82h22v-111h-589z" />
<glyph unicode="[" horiz-adv-x="444" d="M100 -283v1577h236v-28h-203v-1520h203v-29h-236z" />
<glyph unicode="\" horiz-adv-x="653" d="M100 1286h33l410 -1368h-33z" />
<glyph unicode="]" horiz-adv-x="444" d="M100 -254h201v1520h-201v28h236v-1577h-236v29z" />
<glyph unicode="^" horiz-adv-x="638" d="M100 889l193 291h51l184 -291h-34l-177 276l-184 -276h-33z" />
<glyph unicode="_" horiz-adv-x="837" d="M100 -80h629v-29h-629v29z" />
<glyph unicode="`" horiz-adv-x="743" d="M125 1335l20 13l420 -170l-8 -25l-420 160z" />
<glyph unicode="a" d="M80 367v215q0 201 74.5 301t248.5 100q68 0 120 -21.5t90 -57.5t61.5 -81t34.5 -90q0 53 1 103.5t1 103.5h30h80v-25h-80v-890h80v-25h-110q0 59 -1 115.5t-1 115.5q-10 -47 -35 -91t-63 -78.5t-90 -55t-120 -20.5q-178 0 -249.5 101t-71.5 280zM113 367 q0 -166 66.5 -258.5t230.5 -92.5q90 0 147 37t91 90.5t47.5 113.5t13.5 108v221q0 59 -14.5 123.5t-48.5 119t-91 89t-145 34.5q-84 0 -141.5 -25.5t-92.5 -73.5t-49 -116.5t-14 -154.5v-215z" />
<glyph unicode="b" d="M20 0v25h80v1318h-80v25h80h33v-635q10 45 33.5 90t61.5 81t90.5 57.5t119.5 21.5q174 0 249 -100.5t75 -300.5v-215q0 -90 -16.5 -161t-54.5 -120t-99.5 -74.5t-151.5 -25.5q-66 0 -118 20.5t-90.5 55t-62.5 78.5t-34 91l-4 -231h-111zM135 365q0 -47 13.5 -107.5 t46 -114t90 -90.5t147.5 -37q164 0 230.5 92.5t66.5 258.5v215q0 86 -14.5 154.5t-49 116.5t-92 73.5t-141.5 25.5q-88 0 -145.5 -34.5t-91 -89t-47 -119t-13.5 -123.5v-221z" />
<glyph unicode="c" horiz-adv-x="819" d="M80 391v191q0 88 22.5 161.5t65.5 126t104.5 81t139.5 28.5q174 -1 255 -115q64 -91 64 -238q0 -38 -4 -81h-20l-13 12q1 24 1 47q-1 152 -59 242q-68 104 -224 104q-76 0 -132.5 -29.5t-93 -79.5t-55 -117t-18.5 -142v-191q0 -178 73.5 -277.5t225.5 -99.5q132 0 208 94 q75 91 74 271v10l6 4l27 -10q2 -21 1 -42q0 -61 -12 -115q-18 -72 -58 -125.5t-102 -84t-144 -30.5q-154 0 -243 104.5t-89 300.5z" />
<glyph unicode="d" d="M80 367v215q0 201 74.5 301t248.5 100q68 0 120 -21.5t90 -57.5t61.5 -81t34.5 -90v610h-82v25h114v-1343h80v-25h-110q0 59 -1 115.5t-1 115.5q-10 -47 -35 -91t-63 -78.5t-90 -55t-120 -20.5q-178 0 -249.5 101t-71.5 280zM113 367q0 -166 66.5 -258.5t230.5 -92.5 q90 0 147 37t91 90.5t47.5 113.5t13.5 108v221q0 59 -14.5 123.5t-48.5 119t-91 89t-145 34.5q-84 0 -141.5 -25.5t-92.5 -73.5t-49 -116.5t-14 -154.5v-215z" />
<glyph unicode="e" horiz-adv-x="819" d="M80 391v191q0 84 20.5 156.5t62.5 126t103.5 84t145.5 30.5q166 0 242.5 -99.5t76.5 -310.5v-71l-12 -13h-606v-82q0 -104 23.5 -178.5t63.5 -121t94 -68t118 -21.5q51 0 99 16.5t87 52.5t64.5 91t31.5 135l6 4l27 -10q-4 -66 -25.5 -124t-60.5 -101t-96.5 -67.5 t-132.5 -24.5q-154 0 -243 104.5t-89 300.5zM113 510h583v2v61q0 201 -70.5 289t-213.5 88q-145 0 -222 -104.5t-77 -298.5v-37z" />
<glyph unicode="f" horiz-adv-x="337" d="M57 911v29h90v293q0 113 35 143q20 18 55 18q27 0 62 -10v-28q-28 8 -49 8q-28 0 -42 -14q-26 -25 -26 -117v-293h117v-29h-117v-886h80v-25h-194v25h79v886h-90z" />
<glyph unicode="g" d="M80 369v213q0 213 80 307t243 94q121 0 202 -69.5t104 -180.5q0 53 1 103.5t1 103.5h30h80v-25h-80v-935q-4 -68 -18 -128.5t-50 -107.5t-100.5 -74.5t-164.5 -27.5q-137 0 -215 64.5t-78 174.5l12 23h20q-1 -10 -1 -20q0 -36 12 -69q14 -42 46 -74t83 -51.5t121 -19.5 q166 0 233.5 85t67.5 247v229q-23 -106 -104 -175.5t-204 -69.5q-158 0 -239.5 87t-81.5 296zM113 369q0 -180 68.5 -266.5t228.5 -86.5q131 0 211.5 90.5t87.5 239.5v275q0 59 -18.5 118.5t-55.5 106.5t-93.5 76.5t-131.5 29.5q-160 0 -228.5 -94t-68.5 -276v-213z" />
<glyph unicode="h" horiz-adv-x="866" d="M20 0v25h80v1318h-80v25h80h33v-625q25 111 99.5 175.5t187.5 64.5q70 0 130 -19.5t106 -65.5t73 -121t27 -185v-567h80v-25h-195v25h80v567q0 104 -25.5 173t-68.5 111t-98.5 59t-116.5 17q-127 0 -202 -94t-75 -268v-565h80v-25h-195z" />
<glyph unicode="i" horiz-adv-x="264" d="M31 0v25h80v890h-80v25h112v-915h82v-25h-194zM94 1231q0 14 9.5 24.5t21.5 10.5q14 0 24.5 -10.5t10.5 -24.5q0 -12 -10.5 -21.5t-24.5 -9.5q-12 0 -21.5 9.5t-9.5 21.5z" />
<glyph unicode="j" horiz-adv-x="264" d="M23 -152q27 -8 45 -8q17 0 26 8q17 15 17 68v999h-80v25h112v-1024q0 -72 -25 -92q-13 -12 -40 -12q-23 0 -55 8v28zM94 1231q0 14 9.5 24.5t21.5 10.5q14 0 24.5 -10.5t10.5 -24.5q0 -12 -10.5 -21.5t-24.5 -9.5q-12 0 -21.5 9.5t-9.5 21.5z" />
<glyph unicode="k" horiz-adv-x="763" d="M20 0v25h80v1318h-80v25h80h35v-874q44 -2 91.5 -2t99.5 2q33 0 58.5 5t47 21.5t42 46t46.5 80.5q10 18 37 65.5t55 98.5q35 59 74 129h96v-25h-71q-49 -90 -88 -160.5t-62 -105.5q-35 -68 -75 -117t-95 -59l35 -37l295 -411h61v-25h-90l-327 467h-230v-442h80v-25h-195z " />
<glyph unicode="l" horiz-adv-x="245" d="M20 0v25h80v1318h-80v25h115v-1343h80v-25h-195z" />
<glyph unicode="m" horiz-adv-x="1228" d="M20 0v25h80v890h-80v25h80h29l4 -176q6 41 25.5 80t48.5 69.5t69.5 50t90.5 19.5q117 0 175 -59.5t72 -180.5q20 125 84 182.5t164 57.5q59 0 107.5 -17.5t81 -58.5t50 -107.5t17.5 -166.5v-608h80v-25h-194v25h79v606q0 92 -15 153.5t-45 98.5t-72 53t-95 16 q-111 0 -170 -78.5t-59 -257.5v-591h80v-25h-195v25h80v585q0 98 -15.5 164t-44 106t-71.5 56t-99 16q-106 0 -166.5 -93t-60.5 -243v-591h80v-25h-195z" />
<glyph unicode="n" horiz-adv-x="866" d="M20 0v25h80v890h-80v25h111q0 -49 1 -97t1 -100q23 109 95.5 172.5t181.5 65.5q12 1 23 1q68 0 124 -21q92 -33 145.5 -120t53.5 -249v-567h80v-25h-195v25h80v567q0 104 -25.5 173t-67.5 111t-98.5 59t-117.5 17q-129 0 -203 -94t-74 -268v-565h80v-25h-195z" />
<glyph unicode="o" horiz-adv-x="868" d="M80 391v187q0 90 24.5 164.5t70.5 128t110.5 83t142.5 29.5q80 0 144.5 -29.5t110.5 -83t71.5 -128t25.5 -164.5v-187q0 -90 -25.5 -164.5t-71.5 -128t-110.5 -83t-144.5 -29.5q-78 0 -142.5 29.5t-110.5 83t-70.5 128t-24.5 164.5zM113 391q0 -84 22.5 -152.5 t63.5 -118.5t99 -78t130 -28q70 0 128 28t101 78t67 118.5t24 152.5v187q0 82 -24 151.5t-67 119.5t-101 77.5t-128 27.5t-127 -27.5t-99 -77.5t-65.5 -120t-23.5 -151v-187z" />
<glyph unicode="p" d="M20 -299h80v1214h-80v25h80h31l2 -207q10 45 33.5 90t61.5 81t90.5 57.5t119.5 21.5q174 0 249 -100.5t75 -300.5v-215q0 -90 -16.5 -161t-54.5 -120t-99.5 -74.5t-151.5 -25.5q-66 0 -118 20.5t-90.5 55t-62.5 78.5t-34 91v-530h80v-25h-195v25zM135 365 q0 -47 13.5 -107.5t46 -114t90 -90.5t147.5 -37q164 0 230.5 92.5t66.5 258.5v215q0 86 -14.5 154.5t-49 116.5t-92 73.5t-141.5 25.5q-88 0 -145.5 -34.5t-91 -89t-47 -119t-13.5 -123.5v-221z" />
<glyph unicode="q" d="M80 367v215q0 170 51 267t172 124q25 6 51.5 8t55.5 2q66 0 118 -22.5t88.5 -58.5t59 -80t33.5 -89q0 53 1 103.5t1 103.5h110v-25h-80v-1214h80v-25h-194v25h82v530q-10 -47 -34 -90t-62 -77.5t-89 -56t-116 -21.5q-61 0 -107 12q-123 29 -172 124t-49 245zM113 367 q0 -166 66.5 -258.5t230.5 -92.5q90 0 147 37t91 91.5t47.5 114.5t13.5 110v217q0 59 -14.5 123.5t-48.5 119t-91 89t-145 34.5q-84 0 -141.5 -25.5t-92.5 -73.5t-49 -116.5t-14 -154.5v-215z" />
<glyph unicode="r" horiz-adv-x="516" d="M20 0v25h80v890h-80v25h80h31q0 -57 1 -112.5t1 -112.5q10 66 38 118t66.5 88.5t85 55t91.5 18.5q53 0 94 -26v-74l-10 -8q-10 43 -38 63q-20 14 -56 13q-15 0 -33 -2q-102 -23 -169 -127.5t-67 -290.5v-518h80v-25h-195z" />
<glyph unicode="s" horiz-adv-x="825" d="M84 340h31l6 -6q-6 -35 -6 -69q0 -23 3 -47q7 -58 38.5 -103t91 -73t153.5 -28q78 0 134.5 17.5t93.5 47.5t55 68.5t18 81.5q0 55 -23.5 94t-62 66t-89 45.5t-101.5 36.5q-61 20 -118.5 38.5t-103.5 45.5t-75 67t-31 103q-1 8 -1 17q1 40 17 78q20 46 60.5 81t102 56.5 t143.5 21.5q168 0 234 -81q65 -79 65 -210v-8l-33 -6l-4 6v16q0 122 -58 186q-62 68 -204 68q-147 0 -218 -65.5t-71 -157.5q0 -53 24.5 -88t66.5 -60.5t99.5 -46t127.5 -40.5q55 -16 106 -37t92 -50.5t65.5 -71.5t24.5 -104q0 -100 -83 -171.5t-253 -71.5q-181 0 -257 95 q-62 78 -63 204q0 26 3 55z" />
<glyph unicode="t" horiz-adv-x="337" d="M39 911v29h88l6 270l17 2h10v-272h119v-29h-119v-743q0 -57 3 -91t15 -48.5t36 -13.5t65 12v-29q-45 -12 -74 -12q-9 0 -17 1q-32 5 -45.5 45t-14.5 119.5t-1 213.5v546h-88z" />
<glyph unicode="u" horiz-adv-x="911" d="M20 915v25h80h115v-25h-80v-528q0 -193 87 -284t231 -91q66 0 121 27t97 73t66.5 110.5t28.5 139.5v553h-80v25h195v-25h-82v-890h82v-25h-111q0 63 -1 125.5t-1 124.5q-10 -49 -38 -97.5t-68.5 -85t-94 -60t-116.5 -23.5q-39 0 -76 6q-129 23 -202 121t-73 274v530h-80z " />
<glyph unicode="v" horiz-adv-x="757" d="M-39 915v25h193v-25h-76l272 -792l15 -88l20 88l283 792h-74v25h192v-25h-81l-328 -915h-23l-313 915h-80z" />
<glyph unicode="w" horiz-adv-x="1003" d="M-39 915v25h193l-2 -25h-78l166 -780l8 -82l10 76l213 811h23l202 -815l9 -72l14 78l196 784h-73l-2 25h192v-25h-82l-229 -915h-27l-207 834l-6 61l-4 -61l-219 -834h-29l-188 915h-80z" />
<glyph unicode="x" horiz-adv-x="710" d="M-49 0v25h84l268 436l25 22q-6 4 -25.5 31t-44.5 63.5t-51.5 77.5t-46.5 74l-117 186h-82v25h189v-22h-72l272 -420l268 420h-69v22h192v-25h-86l-143 -231q-16 -27 -35.5 -59.5t-40 -63.5t-39 -52.5t-28.5 -25.5l28 -22l271 -436h84v-25h-193v23h70l-279 446l-280 -446 h71v-23h-190z" />
<glyph unicode="y" horiz-adv-x="796" d="M-20 915v25h194v-25h-78l281 -770l16 -67l23 69l270 768h-76v25h195v-25h-82l-430 -1214h80v-25h-195v25h80l119 334l-316 880h-81z" />
<glyph unicode="z" horiz-adv-x="710" d="M59 0v27l545 886h-522v-82h-23v111h582v-27l-543 -886h520v82h23v-111h-582z" />
<glyph unicode="{" horiz-adv-x="452" d="M100 481v21q49 18 62.5 60t9.5 100.5t-15.5 128t-11.5 145.5q0 92 16.5 152.5t42 99.5t57.5 62.5t63 43.5l18 -16q-29 -20 -57.5 -45t-51 -64t-38 -96t-15.5 -141q0 -76 10.5 -137.5t16.5 -112.5t-1 -94t-42 -82l-27 -12l29 -13q33 -41 39 -90t0 -102t-16.5 -110.5 t-10.5 -112.5q0 -84 14.5 -138.5t37 -91.5t49 -60.5t53.5 -43.5l-17 -19q-29 20 -59.5 43t-56 58.5t-42 94t-16.5 150.5q0 20 6 62q6 45 14.5 104.5t8.5 113.5t-15.5 95t-54.5 47z" />
<glyph unicode="|" horiz-adv-x="243" d="M100 -246v1573h33v-1573h-33z" />
<glyph unicode="}" horiz-adv-x="452" d="M100 1278l19 16q31 -20 62.5 -43.5t57 -62.5t42 -99.5t16.5 -152.5q0 -76 -11.5 -145.5t-15.5 -128t9.5 -100.5t62.5 -60v-21q-41 -6 -55.5 -47t-15.5 -95t8.5 -113.5t15.5 -104.5q6 -41 6 -62q0 -92 -16.5 -150.5t-42 -94t-56 -58t-59.5 -43.5l-16 19q27 20 53 43.5 t49 59.5t37 91.5t14 139.5q0 55 -11 112.5t-17.5 110.5t0 102t38.5 90l31 13l-29 12q-35 39 -41 82t0.5 94t16.5 112.5t10 137.5q0 84 -15.5 141t-39 96t-52 63.5t-55.5 45.5z" />
<glyph unicode="~" horiz-adv-x="786" d="M100 428q43 121 131.5 142.5t184.5 -68.5q82 -76 150.5 -61.5t88.5 110.5l19 -25q-10 -47 -37 -77.5t-64.5 -39t-83 7t-94.5 62.5q-43 41 -85 55.5t-78.5 4t-65.5 -45t-43 -92.5z" />
<glyph unicode="&#xa1;" horiz-adv-x="313" d="M43 975q0 23 14.5 38t34.5 15q23 0 38.5 -15.5t15.5 -37.5q0 -20 -15.5 -34.5t-38.5 -14.5q-20 0 -34.5 14.5t-14.5 34.5zM76 -25l2 717h29l2 -719v-178h-33v180z" />
<glyph unicode="&#xa2;" horiz-adv-x="860" d="M100 494v190q0 172 83 281.5t233 115.5v144h33v-144q164 -6 241.5 -119.5t57.5 -314.5h-21l-12 12q10 186 -57.5 290t-225.5 104q-76 0 -132 -30t-93 -80t-55.5 -116.5t-18.5 -142.5v-190q0 -178 74 -277.5t225 -99.5q131 0 208 93t75 282l6 4l27 -11q6 -84 -11.5 -154.5 t-55.5 -123.5t-96.5 -85t-135.5 -34v-149h-33v149q-145 4 -230.5 108.5t-85.5 297.5z" />
<glyph unicode="&#xa3;" horiz-adv-x="987" d="M59 535v28h107v250q0 111 26.5 195t73.5 141t111.5 86t138.5 29q102 0 174 -33t114 -95.5t56 -152.5t4 -205h-30l-7 4q10 98 0 181.5t-46 143.5t-100.5 94t-164.5 34q-139 0 -228 -110.5t-89 -311.5v-250h290v-28h-290v-504h647v80h24v-111h-784v25h80v510h-107z" />
<glyph unicode="&#xa4;" horiz-adv-x="837" d="M180 842l21 18l96 -96q25 23 55.5 36t67.5 13q68 0 121 -43l88 88l20 -20l-88 -88q47 -51 51 -125q0 -35 -14 -68t-37 -59l84 -82l-20 -19l-84 80q-49 -43 -117 -43q-39 -2 -70.5 12.5t-58.5 36.5l-90 -90l-21 21l90 90q-43 49 -43 117q0 35 12.5 66.5t32.5 55.5z M256 623q0 -68 48 -116t118 -48q68 0 117 48t49 116q0 72 -49.5 118.5t-116.5 46.5q-70 0 -118 -47t-48 -118z" />
<glyph unicode="&#xa5;" horiz-adv-x="866" d="M-16 1208v25h186v-25h-72l148 -317l184 -418l182 416l146 319h-72v25h186v-25h-77l-342 -749l-2 -53h290v-27h-292v-57v-121h292v-27h-292v-149h79v-25h-194v25h82v149h-303v27h303v178h-303v27h299l-2 51l-349 751h-77z" />
<glyph unicode="&#xa6;" horiz-adv-x="243" d="M100 -246v688h33v-688h-33zM100 631v696h33v-696h-33z" />
<glyph unicode="&#xa7;" horiz-adv-x="866" d="M104 340h31l6 -6q-10 -59 -3 -116.5t39 -102.5t91.5 -73t153.5 -28q78 0 135 17.5t94 47.5t54.5 68.5t17.5 81.5q0 55 -23.5 93t-62.5 66t-87 46.5t-99 34.5l-99 31q-47 14 -88 32.5t-72.5 44t-51 61.5t-21.5 87q-4 88 53 154q-23 23 -37 55.5t-16 75.5q-2 49 17.5 95 t59.5 81t101 56.5t143 21.5q84 0 143.5 -23.5t95.5 -63.5t51 -94.5t9 -117.5l-30 -7l-7 7q8 76 -9 127t-54 82.5t-89 46t-110 16.5q-53 0 -105 -12.5t-93 -40t-65.5 -70.5t-24.5 -102t28.5 -96t74.5 -62t105.5 -42t118.5 -36q53 -18 103.5 -39.5t89.5 -52.5t62.5 -72 t23.5 -98q0 -41 -12.5 -78t-38.5 -65q23 -27 37 -61t14 -81q0 -100 -83 -171.5t-253 -71.5q-182 0 -258 95t-60 259zM152 727q0 -51 21.5 -86t57 -58.5t80.5 -39t95 -29.5q72 -23 144.5 -48.5t127.5 -72.5q45 51 45 121q0 51 -20.5 88t-56.5 63.5t-82 47t-95 37.5 q-76 25 -149.5 48t-120.5 60q-25 -27 -36 -60.5t-11 -70.5z" />
<glyph unicode="&#xa8;" horiz-adv-x="567" d="M98 1217q0 23 15.5 39t38.5 16t39 -16t16 -39t-16.5 -39.5t-38.5 -16.5q-23 0 -38.5 16.5t-15.5 39.5zM350 1217q0 23 16.5 39t39.5 16t38 -16t15 -39t-15.5 -39.5t-37.5 -16.5q-23 0 -39.5 16.5t-16.5 39.5z" />
<glyph unicode="&#xa9;" horiz-adv-x="1286" d="M100 152v675q0 100 38 188.5t108.5 154t171 102.5t223.5 37t222.5 -39t168 -104.5t106.5 -152.5t38 -186v-675q0 -98 -38 -185.5t-106.5 -152t-168 -102.5t-222.5 -38t-223.5 37t-171 101.5t-108.5 152.5t-38 187zM129 164q0 -96 36 -180t102.5 -147.5t161.5 -99.5 t214 -34q117 0 210 37t158.5 99.5t100.5 146.5t35 178v651q0 94 -35 179t-101.5 147.5t-159.5 100.5t-210 38t-212 -36t-161.5 -99.5t-102.5 -148.5t-36 -181v-651zM309 391v191q0 88 22.5 161.5t65.5 126t104.5 81t139.5 28.5q174 0 255 -114.5t60 -319.5h-20l-12 12 q10 186 -57.5 289.5t-225.5 103.5q-76 0 -132 -29.5t-93 -79.5t-55.5 -117t-18.5 -142v-191q0 -178 73.5 -277.5t225.5 -99.5q131 0 208 93.5t75 281.5l6 4l26 -10q6 -84 -11 -156.5t-57 -126t-102.5 -84t-144.5 -30.5q-154 0 -243 104.5t-89 300.5z" />
<glyph unicode="&#xaa;" horiz-adv-x="870" d="M60 850v215q0 201 74.5 301t248.5 100q68 0 120 -21.5t90 -57.5t61.5 -81t34.5 -90q0 53 1 103.5t1 103.5h30h80v-25h-80v-890h80v-25h-110q0 59 -1 115.5t-1 115.5q-10 -47 -35 -91t-63 -78.5t-90 -55t-120 -20.5q-178 0 -249.5 101t-71.5 280zM93 850 q0 -166 66.5 -258.5t230.5 -92.5q90 0 147 37t91 90.5t47.5 113.5t13.5 108v221q0 59 -14.5 123.5t-48.5 119t-91 89t-145 34.5q-84 0 -141.5 -25.5t-92.5 -73.5t-49 -116.5t-14 -154.5v-215z" />
<glyph unicode="&#xab;" horiz-adv-x="794" d="M100 414v22l373 260v-34l-338 -238l338 -248v-31zM311 414v22l373 260v-34l-338 -238l338 -248v-31z" />
<glyph unicode="&#xac;" horiz-adv-x="837" d="M100 610v29h629v-328h-29v299h-600z" />
<glyph unicode="&#xad;" horiz-adv-x="632" d="M100 504v28h424v-28h-424z" />
<glyph unicode="&#xae;" horiz-adv-x="1286" d="M100 152v675q0 100 38 188.5t108.5 154t171 102.5t223.5 37t222.5 -39t168 -104.5t106.5 -152.5t38 -186v-675q0 -98 -38 -185.5t-106.5 -152t-168 -102.5t-222.5 -38t-223.5 37t-171 101.5t-108.5 152.5t-38 187zM129 164q0 -96 36 -180t102.5 -147.5t161.5 -99.5 t214 -34q117 0 210 37t158.5 99.5t100.5 146.5t35 178v651q0 94 -35 179t-101.5 147.5t-159.5 100.5t-210 38t-212 -36t-161.5 -99.5t-102.5 -148.5t-36 -181v-651zM227 0v25h80v979h-80v24h80h318q168 0 265 -84t97 -246q0 -121 -52 -217t-175 -139l41 -20l219 -297h65v-25 h-88l-209 281q-29 41 -60.5 43t-88.5 2q-94 2 -168 2h-129v-303h80v-25h-195zM342 354h293q68 0 125 21.5t100 64.5t67.5 107.5t24.5 148.5q0 137 -83 220t-244 83h-283v-645z" />
<glyph unicode="&#xaf;" horiz-adv-x="786" d="M100 1208v29h578v-29h-578z" />
<glyph unicode="&#xb0;" horiz-adv-x="589" d="M100 1040q0 39 14.5 75t40 61.5t60.5 41t74 15.5t73.5 -14.5t60.5 -40t41 -60.5t15 -74t-14 -73.5t-40 -60t-59.5 -41t-72.5 -15.5t-74 14.5t-61.5 40t-42 59t-15.5 72.5zM123 1042q0 -68 49 -115.5t119 -47.5q68 0 117 48t49 115q0 72 -49.5 119t-116.5 47 q-70 0 -119 -47t-49 -119z" />
<glyph unicode="&#xb1;" horiz-adv-x="837" d="M100 197v28h629v-28h-629zM100 610v29h299v305h29v-305h301v-29h-301v-295h-29v295h-299z" />
<glyph unicode="&#xb2;" horiz-adv-x="890" d="M102 410q-4 59 43.5 113.5t119 108.5t155.5 110.5t157.5 120t122 135t48.5 157.5q0 53 -19.5 103.5t-56.5 90.5t-90.5 64.5t-120.5 24.5q-78 0 -143.5 -29t-108.5 -83t-59.5 -132t0.5 -176l-7 -6h-30q-16 100 0 184t62 143.5t118 93t168 33.5q76 0 135 -26.5t100 -69.5 t62.5 -99.5t21.5 -117.5q0 -86 -43 -156.5t-109.5 -132t-145.5 -116t-151.5 -105.5t-126.5 -101t-71 -104h647v-28h-678z" />
<glyph unicode="&#xb3;" horiz-adv-x="909" d="M104 1098q-10 74 9.5 140.5t63.5 117.5t111.5 80.5t155.5 29.5q96 0 163 -25.5t109 -65.5t60.5 -91t18.5 -102q0 -61 -27 -101.5t-63.5 -65t-76.5 -36.5t-67 -18q45 -4 89 -21.5t77 -51.5t53.5 -83t20.5 -119q0 -45 -22.5 -93t-67.5 -89t-109.5 -67.5t-146.5 -26.5 q-106 0 -178 27.5t-112 77.5t-52.5 118.5t-1.5 152.5h30l6 -6q-12 -76 -0.5 -138t48 -107.5t101 -71t159.5 -25.5q74 0 131 23.5t97 59.5t61.5 80t21.5 85q0 119 -76 191.5t-246 72.5h-94v27h96q82 0 142.5 17.5t98.5 46t56.5 65.5t18.5 78q0 106 -82 180t-236 74 q-76 0 -135 -28t-99 -74t-58.5 -107.5t-10.5 -128.5l-6 -6z" />
<glyph unicode="&#xb4;" horiz-adv-x="743" d="M125 1178l422 170l18 -13l-10 -22l-420 -160z" />
<glyph unicode="&#xb5;" horiz-adv-x="907" d="M100 -246v1186h33v-553q0 -193 87 -284t231 -91q66 0 121 27t97 74t67.5 110.5t29.5 138.5v578h33v-940h-31l-2 250q-10 -49 -38 -97.5t-70 -86t-96 -60t-118 -22.5q-121 0 -201.5 60t-113.5 177l4 -467h-33z" />
<glyph unicode="&#xb6;" horiz-adv-x="673" d="M100 1235q0 41 29 68.5t70 27.5h364v-28h-117v-1549h-32v1549h-183v-1549h-32v1383q-41 0 -70 28.5t-29 69.5z" />
<glyph unicode="&#xb7;" horiz-adv-x="313" d="M100 459q0 20 15.5 34.5t38.5 14.5q20 0 34.5 -14.5t14.5 -34.5q0 -23 -14.5 -38t-34.5 -15q-23 0 -38.5 15t-15.5 38z" />
<glyph unicode="&#xb8;" horiz-adv-x="667" d="M119 -322l10 27q86 -61 152.5 -79.5t112.5 -10.5t70.5 39t24.5 67q0 39 -15 70t-49 47.5t-86 13t-124 -31.5l51 235l29 4l-45 -206q113 43 189.5 6t76.5 -140q0 -49 -30.5 -85.5t-84 -49t-125 8t-157.5 85.5z" />
<glyph unicode="&#xb9;" horiz-adv-x="284" d="M98 1366v23l27 49h29v-1028h-33v956h-23z" />
<glyph unicode="&#xba;" horiz-adv-x="870" d="M100 844v188q0 217 85 325.5t245 108.5t246 -108.5t86 -325.5v-188q0 -217 -86 -325.5t-246 -108.5t-245 108.5t-85 325.5zM133 856q0 -123 24.5 -204t65.5 -129t94.5 -66.5t112.5 -18.5q57 0 111.5 18.5t96.5 66.5t66.5 129t24.5 204v164q0 123 -24.5 204t-66.5 129 t-96.5 66.5t-111.5 18.5q-59 0 -112.5 -18.5t-94.5 -66.5t-65.5 -129t-24.5 -204v-164z" />
<glyph unicode="&#xbb;" horiz-adv-x="794" d="M100 145v31l338 248l-338 238v34l373 -260v-22zM311 145v31l338 248l-338 238v34l373 -260v-22z" />
<glyph unicode="&#xbc;" horiz-adv-x="1294" d="M100 205v25h82v1136h-23v23l27 49h29v-1208h79v-25h-194zM309 -82l410 1368h33l-410 -1368h-33zM583 12v29l574 987h4h14v-987h82v-29h-82v-197h82v-20h-196v20h82v197h-560zM616 41h527v346v526l6 43z" />
<glyph unicode="&#xbd;" horiz-adv-x="1419" d="M100 205v25h82v1136h-23v23l27 49h29v-1208h79v-25h-194zM309 -82l410 1368h33l-410 -1368h-33zM690 -205q0 74 48.5 141.5t120 134t154.5 135t154.5 144.5t120 163t48.5 189q0 145 -75 235.5t-212 90.5q-98 0 -166 -41t-106.5 -109.5t-48 -158.5t9.5 -189l-7 -6h-30 q-16 100 -7 196.5t49 171t115.5 120t190.5 45.5q154 0 236.5 -97.5t82.5 -257.5q0 -102 -43 -187t-108.5 -160t-144 -141.5t-151.5 -130t-127 -127t-73 -132.5h623v82h24v-111h-678z" />
<glyph unicode="&#xbe;" horiz-adv-x="1857" d="M163 1036q-12 94 7.5 173t64.5 136.5t113.5 89.5t154.5 32q96 0 163 -27t109 -74t60.5 -109.5t18.5 -133.5q0 -82 -27 -134.5t-63.5 -83t-76.5 -45t-67 -20.5q43 -8 86 -28.5t77 -57.5t55.5 -93.5t21.5 -133.5q0 -66 -22.5 -126.5t-66.5 -107.5t-108.5 -75.5 t-148.5 -28.5q-104 0 -176 32.5t-113 92t-54.5 144.5t-0.5 187h30l6 -6q-14 -94 -1.5 -172t50 -133t102 -86t157.5 -31q74 0 131 24.5t97 67.5t61.5 98.5t21.5 116.5q0 137 -74 220.5t-248 83.5h-94v28h96q168 0 242 73t74 194q0 147 -82 231t-236 84q-74 0 -134 -29.5 t-101 -83t-59.5 -126t-8.5 -160.5l-6 -7zM874 -82l410 1368h33l-410 -1368h-33zM1146 12v29l574 987h4h14v-987h82v-29h-82v-197h82v-20h-196v20h82v197h-560zM1179 41h527v346v526l6 43z" />
<glyph unicode="&#xbf;" horiz-adv-x="886" d="M23 129q0 92 25.5 154.5t65.5 109t85 79t85 68.5t66.5 78t26.5 103h31q0 -68 -25.5 -113t-65.5 -80.5t-85 -68.5t-85 -76t-65.5 -103.5t-25.5 -150.5q0 -147 75.5 -226t210.5 -79q104 0 170 44t100.5 107.5t44 135.5t-0.5 129l4 6h30q10 -59 3 -137t-44.5 -147.5 t-110.5 -118t-196 -48.5q-154 0 -236.5 87.5t-82.5 246.5zM340 1004q0 23 14.5 38t34.5 15q23 0 38.5 -15.5t15.5 -37.5q0 -20 -15.5 -34.5t-38.5 -14.5q-20 0 -34.5 14.5t-14.5 34.5z" />
<glyph unicode="&#xc0;" horiz-adv-x="845" d="M-20 0v25h81l338 1208h52l331 -1208h84v-25h-194v23h76l-89 313h-475l-88 -313h78v-23h-194zM190 362h463l-65 238l-164 608l-168 -608zM203 1628l20 13l420 -170l-8 -25l-420 160z" />
<glyph unicode="&#xc1;" horiz-adv-x="845" d="M-20 0v25h81l338 1208h52l331 -1208h84v-25h-194v23h76l-89 313h-475l-88 -313h78v-23h-194zM190 362h463l-65 238l-164 608l-168 -608zM203 1471l422 170l18 -13l-10 -22l-420 -160z" />
<glyph unicode="&#xc2;" horiz-adv-x="845" d="M-20 0v25h81l338 1208h52l331 -1208h84v-25h-194v23h76l-89 313h-475l-88 -313h78v-23h-194zM190 362h463l-65 238l-164 608l-168 -608zM209 1387l193 290h51l184 -290h-34l-177 276l-184 -276h-33z" />
<glyph unicode="&#xc3;" horiz-adv-x="845" d="M-20 0v25h81l338 1208h52l331 -1208h84v-25h-194v23h76l-89 313h-475l-88 -313h78v-23h-194zM135 1477q43 123 131.5 143.5t184.5 -67.5q82 -78 150.5 -63t88.5 112l19 -25q-10 -47 -37 -77.5t-64.5 -40t-83 6t-94.5 62.5q-43 41 -85 55.5t-78.5 4t-65.5 -45.5t-43 -92z M190 362h463l-65 238l-164 608l-168 -608z" />
<glyph unicode="&#xc4;" horiz-adv-x="845" d="M-20 0v25h81l338 1208h52l331 -1208h84v-25h-194v23h76l-89 313h-475l-88 -313h78v-23h-194zM190 362h463l-65 238l-164 608l-168 -608zM241 1510q0 23 15.5 39t38.5 16t39 -16t16 -39t-16.5 -39.5t-38.5 -16.5q-23 0 -38.5 16.5t-15.5 39.5zM493 1510q0 23 16.5 39 t39.5 16t38 -16t15 -39t-15.5 -39.5t-37.5 -16.5q-23 0 -39.5 16.5t-16.5 39.5z" />
<glyph unicode="&#xc5;" horiz-adv-x="845" d="M-20 0v25h81l338 1208h52l331 -1208h84v-25h-194v23h76l-89 313h-475l-88 -313h78v-23h-194zM190 362h463l-65 238l-164 608l-168 -608zM231 1550q0 39 14.5 74t40 61.5t60.5 42t74 15.5t73.5 -14.5t60.5 -40t41 -60.5t15 -73q0 -39 -14 -74t-40 -60.5t-59.5 -41 t-72.5 -15.5t-74 14.5t-61.5 40t-42 59.5t-15.5 72zM254 1553q0 -70 49 -117t119 -47q68 0 117 47t49 117t-49.5 117.5t-116.5 47.5q-70 0 -119 -48t-49 -117z" />
<glyph unicode="&#xc6;" horiz-adv-x="1406" d="M-33 0v25h76l619 1177h-101v31h828v-111h-25v80h-563v-555h508v-31h-508v-585h571v80h25v-111h-629v334h-524l-164 -311h67v-23h-180zM256 362h512v838h-72l-10 -24z" />
<glyph unicode="&#xc7;" horiz-adv-x="825" d="M63 440v373q0 111 27 195t74 141t111.5 86t138.5 29q102 0 173.5 -33t113.5 -95.5t56.5 -152.5t4.5 -205h-31l-6 4q10 98 0 181.5t-46 143.5t-100.5 94t-164.5 34q-139 0 -228.5 -110.5t-89.5 -311.5v-373q0 -211 77 -319.5t239 -108.5q82 0 144 31t103 86t57.5 132 t6.5 171l6 6l33 -6q14 -221 -82 -334.5t-266 -113.5q-180 0 -265.5 114.5t-85.5 341.5zM213 -322l10 27q84 -61 150.5 -79.5t112.5 -10.5t71 39t25 67q0 39 -15.5 70t-49.5 47.5t-86 13t-124 -31.5l41 186l27 -2l-33 -151q57 20 106.5 21t85 -16.5t55 -52t19.5 -86.5 q0 -49 -29.5 -85.5t-83 -49t-125 8t-157.5 85.5z" />
<glyph unicode="&#xc8;" horiz-adv-x="751" d="M20 0v25h80v1183h-80v25h80h623v-111h-25v80h-563v-555h426v-31h-426v-585h572v80h24v-111h-711zM154 1628l20 13l420 -170l-8 -25l-420 160z" />
<glyph unicode="&#xc9;" horiz-adv-x="751" d="M20 0v25h80v1183h-80v25h80h623v-111h-25v80h-563v-555h426v-31h-426v-585h572v80h24v-111h-711zM154 1471l422 170l18 -13l-10 -22l-420 -160z" />
<glyph unicode="&#xca;" horiz-adv-x="751" d="M20 0v25h80v1183h-80v25h80h623v-111h-25v80h-563v-555h426v-31h-426v-585h572v80h24v-111h-711zM161 1387l193 290h51l184 -290h-34l-177 276l-184 -276h-33z" />
<glyph unicode="&#xcb;" horiz-adv-x="751" d="M20 0v25h80v1183h-80v25h80h623v-111h-25v80h-563v-555h426v-31h-426v-585h572v80h24v-111h-711zM196 1510q0 23 15.5 39t38.5 16t39 -16t16 -39t-16.5 -39.5t-38.5 -16.5q-23 0 -38.5 16.5t-15.5 39.5zM448 1510q0 23 16.5 39t39.5 16t38 -16t15 -39t-15.5 -39.5 t-37.5 -16.5q-23 0 -39.5 16.5t-16.5 39.5z" />
<glyph unicode="&#xcc;" horiz-adv-x="235" d="M-102 1628l20 13l420 -170l-8 -25l-420 160zM20 0v25h80v1183h-80v25h115v-1208h80v-25h-195zM135 1208v25h80v-25h-80z" />
<glyph unicode="&#xcd;" horiz-adv-x="235" d="M-102 1471l422 170l18 -13l-10 -22l-420 -160zM20 0v25h80v1183h-80v25h115v-1208h80v-25h-195zM135 1208v25h80v-25h-80z" />
<glyph unicode="&#xce;" horiz-adv-x="235" d="M-95 1387l193 290h51l184 -290h-34l-177 276l-184 -276h-33zM20 0v25h80v1183h-80v25h115v-1208h80v-25h-195zM135 1208v25h80v-25h-80z" />
<glyph unicode="&#xcf;" horiz-adv-x="235" d="M-64 1510q0 23 15.5 39t38.5 16t39 -16t16 -39t-16.5 -39.5t-38.5 -16.5q-23 0 -38.5 16.5t-15.5 39.5zM20 0v25h80v1183h-80v25h115v-1208h80v-25h-195zM135 1208v25h80v-25h-80zM188 1510q0 23 16.5 39t39.5 16t38 -16t15 -39t-15.5 -39.5t-37.5 -16.5 q-23 0 -39.5 16.5t-16.5 39.5z" />
<glyph unicode="&#xd0;" horiz-adv-x="870" d="M0 610v29h100v569h-80v25h349q115 0 193.5 -36t126.5 -110.5t69.5 -191.5t21.5 -279q0 -141 -23.5 -255.5t-74.5 -194.5t-132 -123t-196 -43h-334v25h80v585h-100zM135 29h219q186 0 290 141t104 446q0 141 -16.5 251t-58.5 184.5t-116 113.5t-188 39h-234v-565h289v-29 h-289v-581z" />
<glyph unicode="&#xd1;" horiz-adv-x="884" d="M20 0v25h80v1183h-80v25h111l623 -1174q0 6 -1 14.5t-1 16.5l-2 619v499h-80v25h112v-1233h-30l-623 1167q4 -16 4 -28l2 -617v-497h80v-25h-195zM153 1477q43 123 131.5 143.5t184.5 -67.5q82 -78 150.5 -63t88.5 112l19 -25q-10 -47 -37 -77.5t-64.5 -40t-83 6 t-94.5 62.5q-43 41 -85 55.5t-78.5 4t-65.5 -45.5t-43 -92zM782 1208v25h82v-25h-82z" />
<glyph unicode="&#xd2;" horiz-adv-x="884" d="M80 616q0 184 24.5 308.5t69.5 199t110.5 107.5t145.5 33q86 0 154.5 -33t116 -107.5t72 -198.5t24.5 -309q0 -170 -29 -289.5t-78 -196.5t-115.5 -111.5t-144.5 -34.5t-142.5 30.5t-110.5 104.5t-71.5 195.5t-25.5 301.5zM113 616q0 -313 78.5 -458.5t238.5 -145.5 q88 0 151.5 47t104.5 129t59.5 191.5t18.5 236.5q0 170 -21.5 288t-63.5 191.5t-104.5 106.5t-144.5 33q-162 0 -239.5 -147.5t-77.5 -471.5zM221 1628l20 13l420 -170l-8 -25l-420 160z" />
<glyph unicode="&#xd3;" horiz-adv-x="884" d="M80 616q0 184 24.5 308.5t69.5 199t110.5 107.5t145.5 33q86 0 154.5 -33t116 -107.5t72 -198.5t24.5 -309q0 -170 -29 -289.5t-78 -196.5t-115.5 -111.5t-144.5 -34.5t-142.5 30.5t-110.5 104.5t-71.5 195.5t-25.5 301.5zM113 616q0 -313 78.5 -458.5t238.5 -145.5 q88 0 151.5 47t104.5 129t59.5 191.5t18.5 236.5q0 170 -21.5 288t-63.5 191.5t-104.5 106.5t-144.5 33q-162 0 -239.5 -147.5t-77.5 -471.5zM221 1471l422 170l18 -13l-10 -22l-420 -160z" />
<glyph unicode="&#xd4;" horiz-adv-x="884" d="M80 616q0 184 24.5 308.5t69.5 199t110.5 107.5t145.5 33q86 0 154.5 -33t116 -107.5t72 -198.5t24.5 -309q0 -170 -29 -289.5t-78 -196.5t-115.5 -111.5t-144.5 -34.5t-142.5 30.5t-110.5 104.5t-71.5 195.5t-25.5 301.5zM113 616q0 -313 78.5 -458.5t238.5 -145.5 q88 0 151.5 47t104.5 129t59.5 191.5t18.5 236.5q0 170 -21.5 288t-63.5 191.5t-104.5 106.5t-144.5 33q-162 0 -239.5 -147.5t-77.5 -471.5zM227 1387l193 290h51l184 -290h-34l-177 276l-184 -276h-33z" />
<glyph unicode="&#xd5;" horiz-adv-x="884" d="M80 616q0 184 24.5 308.5t69.5 199t110.5 107.5t145.5 33q86 0 154.5 -33t116 -107.5t72 -198.5t24.5 -309q0 -170 -29 -289.5t-78 -196.5t-115.5 -111.5t-144.5 -34.5t-142.5 30.5t-110.5 104.5t-71.5 195.5t-25.5 301.5zM113 616q0 -313 78.5 -458.5t238.5 -145.5 q88 0 151.5 47t104.5 129t59.5 191.5t18.5 236.5q0 170 -21.5 288t-63.5 191.5t-104.5 106.5t-144.5 33q-162 0 -239.5 -147.5t-77.5 -471.5zM155 1477q43 123 131.5 143.5t184.5 -67.5q82 -78 150.5 -63t88.5 112l19 -25q-10 -47 -37 -77.5t-64.5 -40t-83 6t-94.5 62.5 q-43 41 -85 55.5t-78.5 4t-65.5 -45.5t-43 -92z" />
<glyph unicode="&#xd6;" horiz-adv-x="884" d="M80 616q0 184 24.5 308.5t69.5 199t110.5 107.5t145.5 33q86 0 154.5 -33t116 -107.5t72 -198.5t24.5 -309q0 -170 -29 -289.5t-78 -196.5t-115.5 -111.5t-144.5 -34.5t-142.5 30.5t-110.5 104.5t-71.5 195.5t-25.5 301.5zM113 616q0 -313 78.5 -458.5t238.5 -145.5 q88 0 151.5 47t104.5 129t59.5 191.5t18.5 236.5q0 170 -21.5 288t-63.5 191.5t-104.5 106.5t-144.5 33q-162 0 -239.5 -147.5t-77.5 -471.5zM262 1510q0 23 15.5 39t38.5 16t39 -16t16 -39t-16.5 -39.5t-38.5 -16.5q-23 0 -38.5 16.5t-15.5 39.5zM514 1510q0 23 16.5 39 t39.5 16t38 -16t15 -39t-15.5 -39.5t-37.5 -16.5q-23 0 -39.5 16.5t-16.5 39.5z" />
<glyph unicode="&#xd7;" horiz-adv-x="837" d="M180 842l21 18l215 -215l213 213l20 -20l-213 -213l209 -209l-20 -19l-209 207l-211 -211l-21 21l211 211z" />
<glyph unicode="&#xd8;" horiz-adv-x="884" d="M80 616q0 184 24.5 308.5t69.5 199t110.5 107.5t145.5 33q86 0 154.5 -33t116 -107.5t72 -198.5t24.5 -309q0 -170 -29 -289.5t-78 -196.5t-115.5 -111.5t-144.5 -34.5t-142.5 30.5t-110.5 104.5t-71.5 195.5t-25.5 301.5zM113 616q0 -313 78.5 -458.5t238.5 -145.5 q88 0 151.5 47t104.5 129t59.5 191.5t18.5 236.5q0 170 -21.5 288t-63.5 191.5t-104.5 106.5t-144.5 33q-162 0 -239.5 -147.5t-77.5 -471.5zM233 -66l410 1368h33l-410 -1368h-33z" />
<glyph unicode="&#xd9;" horiz-adv-x="890" d="M20 1208v25h101h94v-25h-82v-731q0 -129 20.5 -217t60.5 -143.5t98.5 -80t131.5 -24.5q84 0 143.5 33t96.5 93.5t54.5 146.5t17.5 192v731h-80v25h194v-25h-82v-626q0 -174 -21.5 -290t-64.5 -184.5t-107.5 -96t-150.5 -27.5q-92 0 -156.5 27.5t-106.5 96t-61.5 184.5 t-19.5 290v626h-80zM223 1628l20 13l420 -170l-8 -25l-420 160z" />
<glyph unicode="&#xda;" horiz-adv-x="890" d="M20 1208v25h101h94v-25h-82v-731q0 -129 20.5 -217t60.5 -143.5t98.5 -80t131.5 -24.5q84 0 143.5 33t96.5 93.5t54.5 146.5t17.5 192v731h-80v25h194v-25h-82v-626q0 -174 -21.5 -290t-64.5 -184.5t-107.5 -96t-150.5 -27.5q-92 0 -156.5 27.5t-106.5 96t-61.5 184.5 t-19.5 290v626h-80zM223 1471l422 170l18 -13l-10 -22l-420 -160z" />
<glyph unicode="&#xdb;" horiz-adv-x="890" d="M20 1208v25h101h94v-25h-82v-731q0 -129 20.5 -217t60.5 -143.5t98.5 -80t131.5 -24.5q84 0 143.5 33t96.5 93.5t54.5 146.5t17.5 192v731h-80v25h194v-25h-82v-626q0 -174 -21.5 -290t-64.5 -184.5t-107.5 -96t-150.5 -27.5q-92 0 -156.5 27.5t-106.5 96t-61.5 184.5 t-19.5 290v626h-80zM231 1387l193 290h51l184 -290h-34l-177 276l-184 -276h-33z" />
<glyph unicode="&#xdc;" horiz-adv-x="890" d="M20 1208v25h101h94v-25h-82v-731q0 -129 20.5 -217t60.5 -143.5t98.5 -80t131.5 -24.5q84 0 143.5 33t96.5 93.5t54.5 146.5t17.5 192v731h-80v25h194v-25h-82v-626q0 -174 -21.5 -290t-64.5 -184.5t-107.5 -96t-150.5 -27.5q-92 0 -156.5 27.5t-106.5 96t-61.5 184.5 t-19.5 290v626h-80zM266 1510q0 23 15.5 39t38.5 16t39 -16t16 -39t-16.5 -39.5t-38.5 -16.5q-23 0 -38.5 16.5t-15.5 39.5zM518 1510q0 23 16.5 39t39.5 16t38 -16t15 -39t-15.5 -39.5t-37.5 -16.5q-23 0 -39.5 16.5t-16.5 39.5z" />
<glyph unicode="&#xdd;" horiz-adv-x="825" d="M-37 1208v25h201v-25h-88l321 -694l13 -41l10 37l319 698h-75v25h188v-25h-78l-346 -762v-421h80v-25h-195v25h82v424l-354 759h-78zM191 1471l422 170l18 -13l-10 -22l-420 -160z" />
<glyph unicode="&#xde;" horiz-adv-x="919" d="M18 0v20h82v1192h-82v21h195v-21h-82v-176h291q109 0 187.5 -30.5t130 -86t76 -132t24.5 -169.5q0 -88 -23.5 -163.5t-74 -132t-127 -89t-183.5 -32.5h-301v-181h82v-20h-195zM133 229h299q98 0 170 31t117 84t66.5 124t21.5 150q0 195 -103.5 292.5t-281.5 97.5h-289 v-779z" />
<glyph unicode="&#xdf;" horiz-adv-x="849" d="M18 0v25h82v995q0 166 73 265t239 99q135 0 217 -81.5t82 -225.5q0 -72 -27 -122t-59.5 -85.5t-59 -61.5t-26.5 -48q0 -33 34.5 -77t77.5 -98.5t78 -121t35 -144.5q0 -63 -21.5 -123.5t-66.5 -106.5t-111.5 -74.5t-154.5 -28.5v28q78 0 137 26t100 69t62.5 97t21.5 111 q0 74 -34.5 138.5t-78 120t-78 101.5t-34.5 83q0 27 25.5 52.5t58.5 60t59.5 83t30.5 119.5q2 55 -15.5 105.5t-52 89.5t-85 62.5t-115.5 23.5q-147 0 -213 -91t-66 -257v-1008h-115z" />
<glyph unicode="&#xe0;" d="M80 367v215q0 201 74.5 301t248.5 100q68 0 120 -21.5t90 -57.5t61.5 -81t34.5 -90q0 53 1 103.5t1 103.5h30h80v-25h-80v-890h80v-25h-110q0 59 -1 115.5t-1 115.5q-10 -47 -35 -91t-63 -78.5t-90 -55t-120 -20.5q-178 0 -249.5 101t-71.5 280zM113 367 q0 -166 66.5 -258.5t230.5 -92.5q90 0 147 37t91 90.5t47.5 113.5t13.5 108v221q0 59 -14.5 123.5t-48.5 119t-91 89t-145 34.5q-84 0 -141.5 -25.5t-92.5 -73.5t-49 -116.5t-14 -154.5v-215zM205 1335l20 13l420 -170l-8 -25l-420 160z" />
<glyph unicode="&#xe1;" d="M80 367v215q0 201 74.5 301t248.5 100q68 0 120 -21.5t90 -57.5t61.5 -81t34.5 -90q0 53 1 103.5t1 103.5h30h80v-25h-80v-890h80v-25h-110q0 59 -1 115.5t-1 115.5q-10 -47 -35 -91t-63 -78.5t-90 -55t-120 -20.5q-178 0 -249.5 101t-71.5 280zM113 367 q0 -166 66.5 -258.5t230.5 -92.5q90 0 147 37t91 90.5t47.5 113.5t13.5 108v221q0 59 -14.5 123.5t-48.5 119t-91 89t-145 34.5q-84 0 -141.5 -25.5t-92.5 -73.5t-49 -116.5t-14 -154.5v-215zM205 1178l422 170l18 -13l-10 -22l-420 -160z" />
<glyph unicode="&#xe2;" d="M80 367v215q0 201 74.5 301t248.5 100q68 0 120 -21.5t90 -57.5t61.5 -81t34.5 -90q0 53 1 103.5t1 103.5h30h80v-25h-80v-890h80v-25h-110q0 59 -1 115.5t-1 115.5q-10 -47 -35 -91t-63 -78.5t-90 -55t-120 -20.5q-178 0 -249.5 101t-71.5 280zM113 367 q0 -166 66.5 -258.5t230.5 -92.5q90 0 147 37t91 90.5t47.5 113.5t13.5 108v221q0 59 -14.5 123.5t-48.5 119t-91 89t-145 34.5q-84 0 -141.5 -25.5t-92.5 -73.5t-49 -116.5t-14 -154.5v-215zM211 1094l193 290h51l184 -290h-34l-177 276l-184 -276h-33z" />
<glyph unicode="&#xe3;" d="M80 367v215q0 201 74.5 301t248.5 100q68 0 120 -21.5t90 -57.5t61.5 -81t34.5 -90q0 53 1 103.5t1 103.5h30h80v-25h-80v-890h80v-25h-110q0 59 -1 115.5t-1 115.5q-10 -47 -35 -91t-63 -78.5t-90 -55t-120 -20.5q-178 0 -249.5 101t-71.5 280zM113 367 q0 -166 66.5 -258.5t230.5 -92.5q90 0 147 37t91 90.5t47.5 113.5t13.5 108v221q0 59 -14.5 123.5t-48.5 119t-91 89t-145 34.5q-84 0 -141.5 -25.5t-92.5 -73.5t-49 -116.5t-14 -154.5v-215zM137 1184q43 123 131.5 143.5t184.5 -67.5q82 -78 150.5 -63t88.5 112l19 -25 q-10 -47 -37 -77.5t-64.5 -40t-83 6t-94.5 62.5q-43 41 -85 55.5t-78.5 4t-65.5 -45.5t-43 -92z" />
<glyph unicode="&#xe4;" d="M80 367v215q0 201 74.5 301t248.5 100q68 0 120 -21.5t90 -57.5t61.5 -81t34.5 -90q0 53 1 103.5t1 103.5h30h80v-25h-80v-890h80v-25h-110q0 59 -1 115.5t-1 115.5q-10 -47 -35 -91t-63 -78.5t-90 -55t-120 -20.5q-178 0 -249.5 101t-71.5 280zM113 367 q0 -166 66.5 -258.5t230.5 -92.5q90 0 147 37t91 90.5t47.5 113.5t13.5 108v221q0 59 -14.5 123.5t-48.5 119t-91 89t-145 34.5q-84 0 -141.5 -25.5t-92.5 -73.5t-49 -116.5t-14 -154.5v-215zM245 1217q0 23 15.5 39t38.5 16t39 -16t16 -39t-16.5 -39.5t-38.5 -16.5 q-23 0 -38.5 16.5t-15.5 39.5zM497 1217q0 23 16.5 39t39.5 16t38 -16t15 -39t-15.5 -39.5t-37.5 -16.5q-23 0 -39.5 16.5t-16.5 39.5z" />
<glyph unicode="&#xe5;" d="M80 367v215q0 201 74.5 301t248.5 100q68 0 120 -21.5t90 -57.5t61.5 -81t34.5 -90q0 53 1 103.5t1 103.5h30h80v-25h-80v-890h80v-25h-110q0 59 -1 115.5t-1 115.5q-10 -47 -35 -91t-63 -78.5t-90 -55t-120 -20.5q-178 0 -249.5 101t-71.5 280zM113 367 q0 -166 66.5 -258.5t230.5 -92.5q90 0 147 37t91 90.5t47.5 113.5t13.5 108v221q0 59 -14.5 123.5t-48.5 119t-91 89t-145 34.5q-84 0 -141.5 -25.5t-92.5 -73.5t-49 -116.5t-14 -154.5v-215zM235 1257q0 39 14.5 74t40 61.5t60.5 42t74 15.5t73.5 -14.5t60.5 -40t41 -60.5 t15 -73q0 -39 -14 -74t-40 -60.5t-59.5 -41t-72.5 -15.5t-74 14.5t-61.5 40t-42 59.5t-15.5 72zM258 1260q0 -70 49 -117t119 -47q68 0 117 47t49 117t-49.5 117.5t-116.5 47.5q-70 0 -119 -48t-49 -117z" />
<glyph unicode="&#xe6;" horiz-adv-x="1449" d="M80 438v74q0 117 13 206t50 147.5t99.5 88t160.5 29.5q70 0 120 -21.5t86 -57.5t58.5 -81t39.5 -90q0 35 1 69t1 68v70h24v-205q31 111 108 177.5t201 66.5q166 0 243 -99.5t77 -310.5v-71l-12 -13h-607v-82q0 -104 24 -178.5t63.5 -121t94 -68t117.5 -21.5 q51 0 100.5 16.5t88.5 52.5t63.5 91t30.5 135l6 4l27 -10q-4 -66 -25.5 -123t-59.5 -100t-94.5 -68.5t-131.5 -25.5q-41 0 -89 10q-84 18 -141 76.5t-84 154.5v-227h-24v80v160q-12 -49 -36 -94.5t-59.5 -81t-87 -57t-120.5 -21.5q-55 0 -95 8q-74 14 -119 51t-70.5 93.5 t-33.5 132t-8 167.5zM113 367q0 -166 66.5 -258.5t230.5 -92.5q90 0 147 37t91 91.5t47.5 114.5t13.5 110v217q0 59 -14.5 123.5t-48.5 119t-91 89t-145 34.5q-84 0 -141.5 -25.5t-92.5 -73.5t-49 -116.5t-14 -154.5v-215zM743 510h586v2v61q0 201 -72 289t-215 88 q-145 0 -222 -104.5t-77 -298.5v-37z" />
<glyph unicode="&#xe7;" horiz-adv-x="819" d="M80 391v191q0 88 22.5 161.5t65.5 126t104.5 81t139.5 28.5q174 0 255 -114.5t60 -319.5h-20l-13 12q10 186 -57.5 289.5t-224.5 103.5q-76 0 -132.5 -29.5t-93 -79.5t-55 -117t-18.5 -142v-191q0 -178 73.5 -277.5t225.5 -99.5q131 0 207.5 93.5t74.5 281.5l6 4l27 -10 q6 -84 -11.5 -156.5t-57.5 -126t-102 -84t-144 -30.5q-154 0 -243 104.5t-89 300.5zM211 -322l10 27q86 -61 152.5 -79.5t112.5 -10.5t71 39t25 67q0 39 -15.5 70t-49.5 47.5t-86 13t-124 -31.5l41 186l27 -2l-33 -151q113 43 189.5 6t76.5 -140q0 -49 -30.5 -85.5t-83 -49 t-125 8t-158.5 85.5z" />
<glyph unicode="&#xe8;" horiz-adv-x="819" d="M80 391v191q0 84 20.5 156.5t62.5 126t103.5 84t145.5 30.5q166 0 242.5 -99.5t76.5 -310.5v-71l-12 -13h-606v-82q0 -104 23.5 -178.5t63.5 -121t94 -68t118 -21.5q51 0 99 16.5t87 52.5t64.5 91t31.5 135l6 4l27 -10q-4 -66 -25.5 -124t-60.5 -101t-96.5 -67.5 t-132.5 -24.5q-154 0 -243 104.5t-89 300.5zM113 510h583v2v61q0 201 -70.5 289t-213.5 88q-145 0 -222 -104.5t-77 -298.5v-37zM188 1335l20 13l420 -170l-8 -25l-420 160z" />
<glyph unicode="&#xe9;" horiz-adv-x="819" d="M80 391v191q0 84 20.5 156.5t62.5 126t103.5 84t145.5 30.5q166 0 242.5 -99.5t76.5 -310.5v-71l-12 -13h-606v-82q0 -104 23.5 -178.5t63.5 -121t94 -68t118 -21.5q51 0 99 16.5t87 52.5t64.5 91t31.5 135l6 4l27 -10q-4 -66 -25.5 -124t-60.5 -101t-96.5 -67.5 t-132.5 -24.5q-154 0 -243 104.5t-89 300.5zM113 510h583v2v61q0 201 -70.5 289t-213.5 88q-145 0 -222 -104.5t-77 -298.5v-37zM188 1178l422 170l18 -13l-10 -22l-420 -160z" />
<glyph unicode="&#xea;" horiz-adv-x="819" d="M80 391v191q0 84 20.5 156.5t62.5 126t103.5 84t145.5 30.5q166 0 242.5 -99.5t76.5 -310.5v-71l-12 -13h-606v-82q0 -104 23.5 -178.5t63.5 -121t94 -68t118 -21.5q51 0 99 16.5t87 52.5t64.5 91t31.5 135l6 4l27 -10q-4 -66 -25.5 -124t-60.5 -101t-96.5 -67.5 t-132.5 -24.5q-154 0 -243 104.5t-89 300.5zM113 510h583v2v61q0 201 -70.5 289t-213.5 88q-145 0 -222 -104.5t-77 -298.5v-37zM194 1094l193 290h51l184 -290h-34l-177 276l-184 -276h-33z" />
<glyph unicode="&#xeb;" horiz-adv-x="819" d="M80 391v191q0 84 20.5 156.5t62.5 126t103.5 84t145.5 30.5q166 0 242.5 -99.5t76.5 -310.5v-71l-12 -13h-606v-82q0 -104 23.5 -178.5t63.5 -121t94 -68t118 -21.5q51 0 99 16.5t87 52.5t64.5 91t31.5 135l6 4l27 -10q-4 -66 -25.5 -124t-60.5 -101t-96.5 -67.5 t-132.5 -24.5q-154 0 -243 104.5t-89 300.5zM113 510h583v2v61q0 201 -70.5 289t-213.5 88q-145 0 -222 -104.5t-77 -298.5v-37zM229 1217q0 23 15.5 39t38.5 16t39 -16t16 -39t-16.5 -39.5t-38.5 -16.5q-23 0 -38.5 16.5t-15.5 39.5zM481 1217q0 23 16.5 39t39.5 16t38 -16 t15 -39t-15.5 -39.5t-37.5 -16.5q-23 0 -39.5 16.5t-16.5 39.5z" />
<glyph unicode="&#xec;" horiz-adv-x="264" d="M-88 1335l20 13l420 -170l-8 -25l-420 160zM29 0v25h82v890h-82v25h114v-915h80v-25h-194z" />
<glyph unicode="&#xed;" horiz-adv-x="264" d="M-88 1178l422 170l18 -13l-10 -22l-420 -160zM29 0v25h82v890h-82v25h114v-915h80v-25h-194z" />
<glyph unicode="&#xee;" horiz-adv-x="264" d="M-82 1094l193 290h51l184 -290h-34l-177 276l-184 -276h-33zM29 0v25h82v890h-82v25h114v-915h80v-25h-194z" />
<glyph unicode="&#xef;" horiz-adv-x="264" d="M-47 1217q0 23 15.5 39t38.5 16t39 -16t16 -39t-16.5 -39.5t-38.5 -16.5q-23 0 -38.5 16.5t-15.5 39.5zM29 0v25h82v890h-82v25h114v-915h80v-25h-194zM205 1217q0 23 16.5 39t39.5 16t38 -16t15 -39t-15.5 -39.5t-37.5 -16.5q-23 0 -39.5 16.5t-16.5 39.5z" />
<glyph unicode="&#xf0;" horiz-adv-x="909" d="M80 391v187q0 90 21.5 164.5t65.5 128t109.5 83t151.5 29.5q135 0 230.5 -76t125.5 -219q-6 117 -20 209t-36.5 162.5t-53.5 124t-68 94.5l-229 -205l-19 21l228 198q-29 27 -73 40.5t-96 17.5t-105.5 1t-96.5 -12v29q53 6 109.5 9t109.5 -1t98.5 -18.5t77.5 -40.5 l103 92h12l14 -16l-108 -95q90 -102 139 -275t49 -445v-187q0 -88 -25.5 -162.5t-72.5 -128t-115.5 -84t-156.5 -30.5q-82 0 -150 29.5t-117 83t-75.5 128t-26.5 164.5zM113 391q0 -88 24.5 -157.5t69.5 -118.5t106.5 -75t135.5 -26q154 0 245.5 102.5t91.5 274.5v187 q0 63 -21.5 129.5t-65.5 122t-110.5 90t-156.5 34.5q-156 0 -237.5 -102t-81.5 -274v-187z" />
<glyph unicode="&#xf1;" horiz-adv-x="866" d="M20 0v25h80v890h-80v25h111q0 -49 1 -97t1 -100q23 109 95.5 172.5t181.5 65.5q82 4 147 -20q92 -33 145.5 -120t53.5 -249v-567h80v-25h-195v25h80v567q0 104 -25.5 173t-67.5 111t-98.5 59t-117.5 17q-129 0 -203 -94t-74 -268v-565h80v-25h-195zM145 1184 q43 123 131.5 143.5t184.5 -67.5q82 -78 150.5 -63t88.5 112l19 -25q-10 -47 -37 -77.5t-64.5 -40t-83 6t-94.5 62.5q-43 41 -85 55.5t-78.5 4t-65.5 -45.5t-43 -92z" />
<glyph unicode="&#xf2;" horiz-adv-x="868" d="M80 391v187q0 90 24.5 164.5t70.5 128t110.5 83t142.5 29.5q80 0 144.5 -29.5t110.5 -83t71.5 -128t25.5 -164.5v-187q0 -90 -25.5 -164.5t-71.5 -128t-110.5 -83t-144.5 -29.5q-78 0 -142.5 29.5t-110.5 83t-70.5 128t-24.5 164.5zM113 391q0 -84 22.5 -152.5 t63.5 -118.5t99 -78t130 -28q70 0 128 28t101 78t67 118.5t24 152.5v187q0 82 -24 151.5t-67 119.5t-101 77.5t-128 27.5t-127 -27.5t-99 -77.5t-65.5 -120t-23.5 -151v-187zM213 1335l20 13l420 -170l-8 -25l-420 160z" />
<glyph unicode="&#xf3;" horiz-adv-x="868" d="M80 391v187q0 90 24.5 164.5t70.5 128t110.5 83t142.5 29.5q80 0 144.5 -29.5t110.5 -83t71.5 -128t25.5 -164.5v-187q0 -90 -25.5 -164.5t-71.5 -128t-110.5 -83t-144.5 -29.5q-78 0 -142.5 29.5t-110.5 83t-70.5 128t-24.5 164.5zM113 391q0 -84 22.5 -152.5 t63.5 -118.5t99 -78t130 -28q70 0 128 28t101 78t67 118.5t24 152.5v187q0 82 -24 151.5t-67 119.5t-101 77.5t-128 27.5t-127 -27.5t-99 -77.5t-65.5 -120t-23.5 -151v-187zM213 1178l422 170l18 -13l-10 -22l-420 -160z" />
<glyph unicode="&#xf4;" horiz-adv-x="868" d="M80 391v187q0 90 24.5 164.5t70.5 128t110.5 83t142.5 29.5q80 0 144.5 -29.5t110.5 -83t71.5 -128t25.5 -164.5v-187q0 -90 -25.5 -164.5t-71.5 -128t-110.5 -83t-144.5 -29.5q-78 0 -142.5 29.5t-110.5 83t-70.5 128t-24.5 164.5zM113 391q0 -84 22.5 -152.5 t63.5 -118.5t99 -78t130 -28q70 0 128 28t101 78t67 118.5t24 152.5v187q0 82 -24 151.5t-67 119.5t-101 77.5t-128 27.5t-127 -27.5t-99 -77.5t-65.5 -120t-23.5 -151v-187zM219 1094l193 290h51l184 -290h-34l-177 276l-184 -276h-33z" />
<glyph unicode="&#xf5;" horiz-adv-x="868" d="M80 391v187q0 90 24.5 164.5t70.5 128t110.5 83t142.5 29.5q80 0 144.5 -29.5t110.5 -83t71.5 -128t25.5 -164.5v-187q0 -90 -25.5 -164.5t-71.5 -128t-110.5 -83t-144.5 -29.5q-78 0 -142.5 29.5t-110.5 83t-70.5 128t-24.5 164.5zM113 391q0 -84 22.5 -152.5 t63.5 -118.5t99 -78t130 -28q70 0 128 28t101 78t67 118.5t24 152.5v187q0 82 -24 151.5t-67 119.5t-101 77.5t-128 27.5t-127 -27.5t-99 -77.5t-65.5 -120t-23.5 -151v-187zM147 1184q43 123 131.5 143.5t184.5 -67.5q82 -78 150.5 -63t88.5 112l19 -25q-10 -47 -37 -77.5 t-64.5 -40t-83 6t-94.5 62.5q-43 41 -85 55.5t-78.5 4t-65.5 -45.5t-43 -92z" />
<glyph unicode="&#xf6;" horiz-adv-x="868" d="M80 391v187q0 90 24.5 164.5t70.5 128t110.5 83t142.5 29.5q80 0 144.5 -29.5t110.5 -83t71.5 -128t25.5 -164.5v-187q0 -90 -25.5 -164.5t-71.5 -128t-110.5 -83t-144.5 -29.5q-78 0 -142.5 29.5t-110.5 83t-70.5 128t-24.5 164.5zM113 391q0 -84 22.5 -152.5 t63.5 -118.5t99 -78t130 -28q70 0 128 28t101 78t67 118.5t24 152.5v187q0 82 -24 151.5t-67 119.5t-101 77.5t-128 27.5t-127 -27.5t-99 -77.5t-65.5 -120t-23.5 -151v-187zM254 1217q0 23 15.5 39t38.5 16t39 -16t16 -39t-16.5 -39.5t-38.5 -16.5q-23 0 -38.5 16.5 t-15.5 39.5zM506 1217q0 23 16.5 39t39.5 16t38 -16t15 -39t-15.5 -39.5t-37.5 -16.5q-23 0 -39.5 16.5t-16.5 39.5z" />
<glyph unicode="&#xf7;" horiz-adv-x="837" d="M159 467v29h629v-29h-629zM422 53q0 20 15.5 34.5t38.5 14.5q20 0 34.5 -14.5t14.5 -34.5q0 -23 -14.5 -38t-34.5 -15q-23 0 -38.5 15.5t-15.5 37.5zM422 889q0 23 15.5 37t38.5 14q20 0 34.5 -14t14.5 -37t-14.5 -37t-34.5 -14q-23 0 -38.5 14t-15.5 37z" />
<glyph unicode="&#xf8;" horiz-adv-x="868" d="M80 391v187q0 90 24.5 164.5t70.5 128t110.5 83t142.5 29.5q80 0 144.5 -29.5t110.5 -83t71.5 -128t25.5 -164.5v-187q0 -90 -25.5 -164.5t-71.5 -128t-110.5 -83t-144.5 -29.5q-78 0 -142.5 29.5t-110.5 83t-70.5 128t-24.5 164.5zM113 391q0 -84 22.5 -152.5 t63.5 -118.5t99 -78t130 -28q70 0 128 28t101 78t67 118.5t24 152.5v187q0 82 -24 151.5t-67 119.5t-101 77.5t-128 27.5t-127 -27.5t-99 -77.5t-65.5 -120t-23.5 -151v-187zM233 -115l394 1186h32l-393 -1186h-33z" />
<glyph unicode="&#xf9;" horiz-adv-x="911" d="M20 915v25h80h115v-25h-80v-528q0 -193 87 -284t231 -91q66 0 121 27t97 73t66.5 110.5t28.5 139.5v553h-80v25h195v-25h-82v-890h82v-25h-111q0 63 -1 125.5t-1 124.5q-10 -49 -38 -97.5t-68.5 -85t-94 -60t-116.5 -23.5q-39 0 -76 6q-129 23 -202 121t-73 274v530h-80z M236 1335l20 13l420 -170l-8 -25l-420 160z" />
<glyph unicode="&#xfa;" horiz-adv-x="911" d="M20 915v25h80h115v-25h-80v-528q0 -193 87 -284t231 -91q66 0 121 27t97 73t66.5 110.5t28.5 139.5v553h-80v25h195v-25h-82v-890h82v-25h-111q0 63 -1 125.5t-1 124.5q-10 -49 -38 -97.5t-68.5 -85t-94 -60t-116.5 -23.5q-39 0 -76 6q-129 23 -202 121t-73 274v530h-80z M236 1178l422 170l18 -13l-10 -22l-420 -160z" />
<glyph unicode="&#xfb;" horiz-adv-x="911" d="M20 915v25h80h115v-25h-80v-528q0 -193 87 -284t231 -91q66 0 121 27t97 73t66.5 110.5t28.5 139.5v553h-80v25h195v-25h-82v-890h82v-25h-111q0 63 -1 125.5t-1 124.5q-10 -49 -38 -97.5t-68.5 -85t-94 -60t-116.5 -23.5q-39 0 -76 6q-129 23 -202 121t-73 274v530h-80z M241 1094l193 290h51l184 -290h-34l-177 276l-184 -276h-33z" />
<glyph unicode="&#xfc;" horiz-adv-x="911" d="M20 915v25h80h115v-25h-80v-528q0 -193 87 -284t231 -91q66 0 121 27t97 73t66.5 110.5t28.5 139.5v553h-80v25h195v-25h-82v-890h82v-25h-111q0 63 -1 125.5t-1 124.5q-10 -49 -38 -97.5t-68.5 -85t-94 -60t-116.5 -23.5q-39 0 -76 6q-129 23 -202 121t-73 274v530h-80z M274 1217q0 23 15.5 39t38.5 16t39 -16t16 -39t-16.5 -39.5t-38.5 -16.5q-23 0 -38.5 16.5t-15.5 39.5zM526 1217q0 23 16.5 39t39.5 16t38 -16t15 -39t-15.5 -39.5t-37.5 -16.5q-23 0 -39.5 16.5t-16.5 39.5z" />
<glyph unicode="&#xfd;" horiz-adv-x="796" d="M-20 915v25h194v-25h-78l281 -770l16 -67l23 69l270 768h-76v25h195v-25h-82l-430 -1214h80v-25h-195v25h80l119 334l-316 880h-81zM176 1178l422 170l18 -13l-10 -22l-420 -160z" />
<glyph unicode="&#xfe;" d="M18 -299h82v1642h-82v25h82h33v-635q8 45 31.5 90t62.5 81t91.5 57.5t119.5 21.5q174 0 249 -100.5t75 -300.5v-215q0 -90 -16.5 -161t-55.5 -120t-100.5 -74.5t-151.5 -25.5q-66 0 -118 20.5t-91 55t-62.5 78.5t-33.5 91v-530h80v-25h-195v25zM133 365 q0 -47 13.5 -107.5t47 -114t91 -90.5t147.5 -37q164 0 230.5 92.5t66.5 258.5v215q0 86 -15.5 154.5t-50 116.5t-91 73.5t-140.5 25.5q-88 0 -146.5 -34.5t-92 -89t-47 -119t-13.5 -123.5v-221z" />
<glyph unicode="&#xff;" horiz-adv-x="796" d="M-20 915v25h194v-25h-78l281 -770l16 -67l23 69l270 768h-76v25h195v-25h-82l-430 -1214h80v-25h-195v25h80l119 334l-316 880h-81zM217 1217q0 23 15.5 39t38.5 16t39 -16t16 -39t-16.5 -39.5t-38.5 -16.5q-23 0 -38.5 16.5t-15.5 39.5zM469 1217q0 23 16.5 39t39.5 16 t38 -16t15 -39t-15.5 -39.5t-37.5 -16.5q-23 0 -39.5 16.5t-16.5 39.5z" />
<glyph unicode="&#x152;" horiz-adv-x="1458" d="M139 616q0 184 24.5 308.5t69.5 199t110.5 107.5t145.5 33q86 0 154.5 -33t116 -107.5t72 -198.5t24.5 -309q0 -170 -29 -289.5t-78 -196.5t-115.5 -111.5t-144.5 -34.5t-142.5 30.5t-110.5 104.5t-71.5 195.5t-25.5 301.5zM172 616q0 -313 78.5 -458.5t238.5 -145.5 q88 0 151.5 47t104.5 129t59.5 191.5t18.5 236.5q0 170 -21.5 288t-63.5 191.5t-104.5 106.5t-144.5 33q-162 0 -239.5 -147.5t-77.5 -471.5zM745 0v25h80v1183h-80v25h80h623v-111h-25v80h-563v-555h426v-31h-426v-585h572v80h24v-111h-711z" />
<glyph unicode="&#x153;" horiz-adv-x="1462" d="M72 391v187q0 90 24.5 164.5t70.5 128t110.5 83t142.5 29.5q80 0 144.5 -29.5t110.5 -83t71.5 -128t25.5 -164.5v-187q0 -90 -25.5 -164.5t-71.5 -128t-110.5 -83t-144.5 -29.5q-78 0 -142.5 29.5t-110.5 83t-70.5 128t-24.5 164.5zM105 391q0 -84 22.5 -152.5 t63.5 -118.5t99 -78t130 -28q70 0 128 28t101 78t67 118.5t24 152.5v187q0 82 -24 151.5t-67 119.5t-101 77.5t-128 27.5t-127 -27.5t-99 -77.5t-65.5 -120t-23.5 -151v-187zM739 391v191q0 84 20.5 156.5t62.5 126t103.5 84t145.5 30.5q166 0 242.5 -99.5t76.5 -310.5v-71 l-12 -13h-606v-82q0 -104 23.5 -178.5t63.5 -121t94 -68t118 -21.5q51 0 99 16.5t87 52.5t64.5 91t31.5 135l6 4l27 -10q-4 -66 -25.5 -124t-60.5 -101t-96.5 -67.5t-132.5 -24.5q-154 0 -243 104.5t-89 300.5zM772 510h583v2v61q0 201 -70.5 289t-213.5 88 q-145 0 -222 -104.5t-77 -298.5v-37z" />
<glyph unicode="&#x178;" horiz-adv-x="825" d="M-37 1208v25h201v-25h-88l321 -694l13 -41l10 37l319 698h-75v25h188v-25h-78l-346 -762v-421h80v-25h-195v25h82v424l-354 759h-78zM233 1510q0 23 15.5 39t38.5 16t39 -16t16 -39t-16.5 -39.5t-38.5 -16.5q-23 0 -38.5 16.5t-15.5 39.5zM485 1510q0 23 16.5 39t39.5 16 t38 -16t15 -39t-15.5 -39.5t-37.5 -16.5q-23 0 -39.5 16.5t-16.5 39.5z" />
<glyph unicode="&#x2c6;" horiz-adv-x="638" d="M100 1094l193 290h51l184 -290h-34l-177 276l-184 -276h-33z" />
<glyph unicode="&#x2dc;" horiz-adv-x="786" d="M100 1184q43 123 131.5 143.5t184.5 -67.5q82 -78 150.5 -63t88.5 112l19 -25q-10 -47 -37 -77.5t-64.5 -40t-83 6t-94.5 62.5q-43 41 -85 55.5t-78.5 4t-65.5 -45.5t-43 -92z" />
<glyph unicode="&#x2000;" horiz-adv-x="871" />
<glyph unicode="&#x2001;" horiz-adv-x="1743" />
<glyph unicode="&#x2002;" horiz-adv-x="871" />
<glyph unicode="&#x2003;" horiz-adv-x="1743" />
<glyph unicode="&#x2004;" horiz-adv-x="581" />
<glyph unicode="&#x2005;" horiz-adv-x="435" />
<glyph unicode="&#x2006;" horiz-adv-x="290" />
<glyph unicode="&#x2007;" horiz-adv-x="290" />
<glyph unicode="&#x2008;" horiz-adv-x="217" />
<glyph unicode="&#x2009;" horiz-adv-x="348" />
<glyph unicode="&#x200a;" horiz-adv-x="96" />
<glyph unicode="&#x2010;" horiz-adv-x="632" d="M100 504v28h424v-28h-424z" />
<glyph unicode="&#x2011;" horiz-adv-x="632" d="M100 504v28h424v-28h-424z" />
<glyph unicode="&#x2012;" horiz-adv-x="632" d="M100 504v28h424v-28h-424z" />
<glyph unicode="&#x2013;" horiz-adv-x="1042" d="M100 504v28h834v-28h-834z" />
<glyph unicode="&#x2014;" horiz-adv-x="1247" d="M100 504v28h1039v-28h-1039z" />
<glyph unicode="&#x2018;" horiz-adv-x="323" d="M100 1118q0 12 10.5 31.5t20.5 32.5l51 82h29l-55 -95q29 -2 41 -28q6 -10 6 -27q-2 -18 -16.5 -32.5t-36.5 -14.5q-20 0 -35 15.5t-15 35.5z" />
<glyph unicode="&#x2019;" horiz-adv-x="323" d="M102 1067l54 94q-29 4 -41 29q-4 4 -4 12v15q2 20 15 33.5t36 13.5t37 -14.5t14 -37.5q0 -10 -4 -18t-10 -18l-70 -109h-27z" />
<glyph unicode="&#x201a;" horiz-adv-x="323" d="M102 -90l54 94q-20 2 -33.5 16.5t-13.5 34.5q0 23 15 37t38 14q20 0 34.5 -13t16.5 -34q0 -6 -1 -10t-3 -8q-4 -10 -10 -20.5t-13 -20.5l-57 -90h-27z" />
<glyph unicode="&#x201c;" horiz-adv-x="495" d="M119 1114q-2 10 8 33q4 10 10 18.5t10 16.5l54 82h26l-53 -95q20 -2 33.5 -15t13.5 -36q0 -20 -15.5 -35.5t-37.5 -15.5q-20 0 -34.5 14.5t-14.5 32.5zM256 1118q0 12 10 31.5t21 32.5l51 82h29l-56 -95q29 -2 41 -28q6 -10 6 -27q-2 -18 -16 -32.5t-37 -14.5 q-20 0 -34.5 15.5t-14.5 35.5z" />
<glyph unicode="&#x201d;" horiz-adv-x="495" d="M102 1067l54 94q-29 4 -41 29q-4 4 -4 12v15q2 20 15 33.5t36 13.5t37 -14.5t14 -37.5q0 -10 -4 -18t-10 -18l-70 -109h-27zM274 1067l56 94q-29 2 -41 29q-4 4 -5 12t-1 15q2 20 16 33.5t37 13.5q20 0 34.5 -14.5t14.5 -37.5q0 -10 -4 -18t-10 -18l-68 -109h-29z" />
<glyph unicode="&#x201e;" horiz-adv-x="495" d="M102 -90l54 94q-20 2 -33.5 16.5t-13.5 34.5q0 23 15 37t38 14q20 0 34.5 -13t16.5 -34q0 -6 -1 -10t-3 -8q-4 -10 -10 -20.5t-13 -20.5l-57 -90h-27zM274 -90l56 94q-23 2 -35 16.5t-12 34.5q0 23 15 37t38 14q20 0 33.5 -13t15.5 -34q0 -6 -1 -10t-3 -8q-4 -25 -27 -47 l-51 -84h-29z" />
<glyph unicode="&#x2022;" horiz-adv-x="872" d="M299 592q0 51 36 86t89 35q51 0 86 -35t35 -86q0 -53 -35 -89t-86 -36q-53 0 -89 36t-36 89z" />
<glyph unicode="&#x2026;" horiz-adv-x="643" d="M100 53q0 20 14.5 34.5t37.5 14.5t37 -14.5t14 -34.5q0 -23 -14.5 -38t-36.5 -15q-23 0 -37.5 15.5t-14.5 37.5zM264 53q0 20 15.5 34.5t37.5 14.5q20 0 36 -14.5t16 -34.5q0 -23 -15.5 -38t-36.5 -15q-23 0 -38 15.5t-15 37.5zM430 53q0 20 14.5 34.5t36.5 14.5 q23 0 37 -14.5t14 -34.5q0 -23 -14 -38t-37 -15t-37 15.5t-14 37.5z" />
<glyph unicode="&#x202f;" horiz-adv-x="348" />
<glyph unicode="&#x2039;" horiz-adv-x="581" d="M100 414v22l373 260v-34l-338 -238l338 -248v-31z" />
<glyph unicode="&#x203a;" horiz-adv-x="581" d="M100 145v31l338 248l-338 238v34l373 -260v-22z" />
<glyph unicode="&#x205f;" horiz-adv-x="435" />
<glyph unicode="&#x20ac;" horiz-adv-x="962" d="M59 485v29h91v180h-91v29h91q0 268 83.5 404.5t264.5 136.5q104 0 175.5 -33t113.5 -95.5t56.5 -152.5t4.5 -205h-33l-4 4q10 98 0 181.5t-47 143.5t-101.5 94t-164.5 34q-168 0 -242 -134t-74 -378h305v-29h-305v-180h305v-29h-305q0 -231 70 -352t246 -121 q80 0 143.5 31t104 86t57 132t6.5 171l4 6l35 -6q14 -221 -82 -334.5t-268 -113.5q-96 0 -163 31.5t-108 95t-59 157.5t-18 217h-91z" />
<glyph unicode="&#x2122;" horiz-adv-x="1673" d="M41 1122v111h719v-111h-25v80h-317v-768h80v-24h-195v24h82v768h-322v-80h-22zM700 410v24h82v799h43l320 -741l12 -46l23 50q31 68 62.5 135t62.5 135l217 467h123v-25h-82v-774h82v-24h-195v24h80l2 705q2 16 4 29.5t4 27.5l-369 -786h-26l-336 784l4 -760h80v-24h-193 z" />
<glyph unicode="&#x25fc;" horiz-adv-x="942" d="M0 0v942h942v-942h-942z" />
<glyph unicode="&#xfb01;" horiz-adv-x="493" d="M59 911v29h91v293q0 113 43 143.5t157 -6.5q14 4 26.5 -5t12.5 -28q0 -12 -10 -21t-25 -9q-12 0 -21 9t-9 21q0 8 2 11q-74 27 -109 4t-35 -119v-293h191v-915h82v-25h-387v25h82v886h-91zM182 25h158v886h-158v-886z" />
<glyph unicode="&#xfb02;" horiz-adv-x="479" d="M116 911v29h90v293q0 113 35 143.5t117 7.5v-28q-66 18 -91.5 -6.5t-25.5 -116.5v-293h117v-29h-117v-886h80v-25h-194v25h79v886h-90zM505 0v25h80v1318h-80v25h115v-1343h80v-25h-195z" />
</font>
</defs>
</svg>
